<svg width="204" height="204" viewBox="0 0 204 204" fill="none" xmlns="http://www.w3.org/2000/svg">
<path d="M131.512 67.2717L110.885 64.7787C102.777 63.7987 94.5485 65.7269 87.7195 70.2089C80.8905 74.6906 75.8474 81.4708 73.5201 89.3008L67.7332 108.768L43.2021 122.148C42.5245 122.518 42.0768 123.202 42.0089 123.971C41.9414 124.74 42.2629 125.491 42.8655 125.974C53.3219 134.339 65.9231 138.994 79.3064 139.436C80.0039 139.459 80.6985 139.471 81.3932 139.471C94.0256 139.471 106.143 135.666 116.556 128.408L130.245 118.868L159.372 121.855C159.451 121.863 159.529 121.867 159.608 121.867C160.174 121.867 160.724 121.659 161.149 121.277C161.633 120.842 161.911 120.223 161.914 119.572L161.999 101.834C162.085 84.2407 148.978 69.3825 131.512 67.2717ZM113.92 124.624C94.3197 138.285 67.9371 138.086 48.558 124.48L70.1486 112.703L123.214 118.146L113.92 124.624ZM157.314 117.007L72.6757 108.326L74.1285 103.439L90.2006 105.172C90.2845 105.181 90.3682 105.186 90.4509 105.186C91.6134 105.186 92.6132 104.309 92.7407 103.127C92.8771 101.861 91.9614 100.724 90.6953 100.587L75.465 98.9444L77.9409 90.6152C82.1264 76.5354 95.748 67.5956 110.332 69.3574L130.959 71.8505C146.099 73.6802 157.462 86.5603 157.388 101.811L157.314 117.007Z" fill="#C89328"/>
<path d="M97.5914 101.33L97.5736 101.328C96.3054 101.19 95.1793 102.109 95.0431 103.375C94.9069 104.641 95.832 105.779 97.0983 105.915C97.182 105.924 97.2652 105.929 97.3479 105.929C98.5107 105.929 99.5105 105.052 99.6378 103.869C99.7739 102.603 98.8578 101.466 97.5914 101.33Z" fill="#C89328"/>
</svg>
