<svg width="204" height="204" viewBox="0 0 204 204" fill="none" xmlns="http://www.w3.org/2000/svg">
<path d="M161.6 136.36L148.28 90.1C146.81 85.0847 142.669 81.3059 137.54 80.3C134.06 75.48 129.7 74.7 125.54 73.56C127.087 67.8014 126.664 61.691 124.34 56.2C122.12 50.9 116.3 42 102 42C87.7 42 81.88 50.9 79.68 56.2C77.3557 61.691 76.9333 67.8014 78.48 73.56C74.12 74.74 69.92 75.56 66.48 80.3C61.3591 81.3127 57.2269 85.0902 55.76 90.1L42.4 136.36C41.5254 139.376 42.1179 142.627 44 145.14L42.46 151.14C42.1996 152.169 42.3589 153.259 42.9028 154.171C43.4468 155.083 44.3307 155.741 45.36 156L56.98 159C58.0092 159.267 59.1023 159.114 60.0179 158.573C60.9336 158.033 61.5964 157.15 61.86 156.12L63.4 150.12C64.2901 149.703 65.118 149.165 65.86 148.52C66.5053 150.601 68.0129 152.306 70 153.2V158C70 160.209 71.7909 162 74 162H130C132.209 162 134 160.209 134 158V153.2C135.991 152.301 137.5 150.589 138.14 148.5C138.882 149.145 139.71 149.683 140.6 150.1L142.14 156.1C142.587 157.869 144.175 159.112 146 159.12C146.7 159.12 145.84 159.28 158.62 156.02C159.65 155.756 160.533 155.094 161.073 154.178C161.614 153.262 161.767 152.169 161.5 151.14L159.96 145.14C161.856 142.634 162.463 139.382 161.6 136.36ZM81.7 64.22C83.293 62.4401 85.1557 60.9216 87.22 59.72C85.9398 62.4425 85.6498 65.5265 86.4 68.44C87.82 74.64 91.3 77.72 95.46 81.8C90.82 79.18 85.28 76.46 83.46 74.58C82 73.2 81.12 69.04 81.7 64.22ZM100.56 94L101.46 90.42C101.547 90.1978 101.761 90.0517 102 90.0517C102.239 90.0517 102.453 90.1978 102.54 90.42L103.44 94H100.56ZM102 83.3C98.3 77.66 92 75.3 90.3 67.56C89.554 65.0358 90.0433 62.3076 91.62 60.2C97.38 52.98 116.56 54.94 113.62 67.56C112 75.32 105.8 77.52 102 83.3ZM117.6 68.44C118.347 65.5347 118.064 62.4604 116.8 59.74C118.865 60.9398 120.723 62.4663 122.3 64.26C122.88 69.06 121.96 73.22 120.58 74.58C118.72 76.44 113.18 79.18 108.58 81.8C112.48 78 116.14 74.82 117.6 68.44ZM102 46C113.1 46 118.14 52 120.46 57.32C118.113 55.7067 115.538 54.4529 112.82 53.6C106.51 51.7076 99.8147 51.5008 93.4 53C89.8977 53.8584 86.5692 55.313 83.56 57.3C85.86 52 90.92 46 102 46ZM58 155.12L46.36 152.14L47.42 148C48.98 148.8 49.42 148.82 56.82 150.7C57.5473 150.878 58.2915 150.979 59.04 151L58 155.12ZM65.18 142.32C64.8258 143.912 63.8391 145.29 62.447 146.139C61.0548 146.988 59.3772 147.234 57.8 146.82C50.56 144.98 49.26 144.94 47.66 143.26C46.1971 141.72 45.6571 139.522 46.24 137.48L59.56 91.22C60.278 88.6745 61.9752 86.5171 64.28 85.22C64.0812 86.1803 63.9874 87.1594 64 88.14C65.54 145.32 65.52 140.7 65.16 142.32H65.18ZM68 88C67.9533 85.6899 68.8068 83.4522 70.38 81.76C73.04 78.76 76.14 78.32 80.38 77.16C83.34 80.46 93.36 84.62 98.08 88.18C97.56 89.04 97.68 88.98 96.08 95.5C95.9283 96.0982 96.0611 96.7329 96.44 97.22C97.16 98.14 97.9 97.98 100.02 97.98V109.98H92C88.8365 109.973 86.2109 112.423 86 115.58C85.74 119.12 84.46 123.72 79.72 125.46C77.4593 126.389 75.9878 128.596 76 131.04V138C76 141.314 78.6863 144 82 144H100V150H73.54C71.4877 150.105 69.7203 148.567 69.54 146.52L68 88ZM100 140H82C80.8955 140 80 139.105 80 138V131.04C80.0017 130.254 80.4633 129.542 81.18 129.22C86.44 127.22 89.6 122.56 90.06 115.88C90.1218 114.845 90.9639 114.029 92 114H100V140ZM104 114H112C113.059 113.998 113.936 114.823 114 115.88C114.46 122.56 117.62 127.3 122.88 129.22C123.597 129.542 124.058 130.254 124.06 131.04V138C124.06 139.105 123.165 140 122.06 140H104V114ZM74 154H100V158H74V154ZM104 158V154H130V158H104ZM130.46 150H104V144H122C125.314 144 128 141.314 128 138V131.04C127.991 128.584 126.485 126.381 124.2 125.48C119.46 123.74 118.2 119.14 117.92 115.6C117.711 112.474 115.133 110.035 112 110H104V98C106.14 98 106.86 98.16 107.58 97.24C107.959 96.7529 108.092 96.1182 107.94 95.52C106.32 89.1 106.4 89.04 105.94 88.2C110.68 84.64 120.68 80.48 123.64 77.18C127.82 78.32 131 78.78 133.64 81.8C135.204 83.4808 136.05 85.705 136 88L134.46 146.5C134.29 148.555 132.52 150.104 130.46 150ZM138.86 142.32L138.7 141.6C138.671 141.531 138.637 141.465 138.6 141.4C140.12 83.24 140.16 87.52 139.72 85.3C142.025 86.5971 143.722 88.7545 144.44 91.3L157.76 137.56C158.205 139.117 158.001 140.789 157.195 142.194C156.389 143.599 155.049 144.618 153.48 145.02C146.4 146.84 145.1 147.5 142.9 146.8C140.846 146.141 139.304 144.431 138.86 142.32ZM146 155.12L144.94 151C145.695 150.979 146.446 150.878 147.18 150.7C154.56 148.82 155.04 148.7 156.56 148L157.62 152.14L146 155.12Z" fill="#C89328"/>
</svg>
