<svg width="212" height="212" viewBox="0 0 212 212" fill="none" xmlns="http://www.w3.org/2000/svg">
<path d="M158.102 73.4957C157.337 70.0959 156.303 66.5997 152.862 64.4864L126.029 48.0124C125.378 47.6058 124.624 47.3935 123.856 47.4002H88.1444C87.3763 47.3935 86.6223 47.6058 85.9706 48.0124L59.1395 64.4864C55.6982 66.5997 54.663 70.0959 53.8996 73.4957C48.5324 97.3703 45.9487 122.067 46 148.998C46.0042 150.405 46.5653 151.753 47.5607 152.747C48.5561 153.742 49.9048 154.302 51.3119 154.305H63.5594C65.1226 154.301 66.6314 153.731 67.8068 152.7C68.9821 151.669 69.7446 150.248 69.9531 148.699L70.8042 142.248C71.1386 148.805 71.5666 154.951 72.0018 160.579C72.1795 162.871 73.9678 164.6 76.162 164.6H135.838C138.032 164.6 139.82 162.871 139.998 160.579C140.433 154.952 140.861 148.805 141.195 142.248L142.046 148.699C142.255 150.248 143.018 151.67 144.193 152.7C145.369 153.731 146.877 154.301 148.441 154.305H160.688C162.095 154.302 163.444 153.742 164.439 152.747C165.435 151.753 165.996 150.405 166 148.998C166.051 122.067 163.469 97.3703 158.102 73.4957ZM120.732 51.1502C119.596 54.1343 117.577 56.7013 114.945 58.5095C112.313 60.3176 109.193 61.281 106 61.2714C102.806 61.2838 99.6846 60.3215 97.0521 58.513C94.4197 56.7045 92.4016 54.1359 91.2674 51.1502H120.732ZM87.4272 51.5186C88.6091 55.1415 90.8196 58.3423 93.7891 60.7307C97.2551 63.5043 101.561 65.0173 106 65.0214C110.128 65.0336 114.153 63.7318 117.493 61.3045C120.832 58.8772 123.313 55.4503 124.575 51.5198L126.097 52.454C124.636 56.6209 121.921 60.2334 118.324 62.7951C114.728 65.3568 110.426 66.7422 106.011 66.761H106C96.94 66.7567 89.1719 61.1692 85.9354 52.4339L87.4272 51.5186ZM66.2357 148.208C66.1552 148.86 65.838 149.459 65.3445 149.891C64.851 150.324 64.2157 150.56 63.5594 150.555H51.3119C50.8976 150.553 50.5008 150.388 50.2081 150.095C49.9154 149.802 49.7507 149.405 49.75 148.99C49.7461 146.857 49.7588 144.736 49.788 142.629H66.9719L66.2357 148.208ZM67.4667 138.879H49.859C49.8873 137.674 49.9213 136.473 49.9612 135.277H67.942L67.4667 138.879ZM136.258 160.289C136.241 160.506 136.112 160.85 135.836 160.85H76.1624C75.8873 160.85 75.7579 160.506 75.7406 160.29C75.6103 158.608 75.4816 156.88 75.3545 155.108H136.644C136.518 156.881 136.389 158.608 136.258 160.289ZM143.563 131.527L141.845 118.506C141.86 108.146 141.492 97.2243 140.5 86.058C140.478 85.8127 140.408 85.5741 140.294 85.3559C140.18 85.1376 140.024 84.944 139.835 84.7859C139.646 84.6279 139.428 84.5087 139.193 84.4349C138.958 84.3612 138.711 84.3345 138.466 84.3563C138.221 84.3781 137.982 84.448 137.764 84.562C137.546 84.676 137.352 84.8319 137.194 85.0208C137.036 85.2096 136.917 85.4278 136.843 85.6627C136.769 85.8977 136.743 86.1448 136.764 86.3901C138.879 110.181 138.125 132.885 136.903 151.359H75.097C73.8747 132.886 73.121 110.182 75.2357 86.3901C75.2575 86.1448 75.2308 85.8977 75.1571 85.6627C75.0834 85.4278 74.9641 85.2096 74.8061 85.0208C74.6481 84.8319 74.4544 84.676 74.2362 84.562C74.0179 84.448 73.7793 84.3781 73.534 84.3563C73.2888 84.3345 73.0416 84.3612 72.8066 84.4349C72.5717 84.5087 72.3536 84.6279 72.1647 84.7859C71.9759 84.944 71.82 85.1376 71.706 85.3559C71.592 85.5741 71.5221 85.8127 71.5003 86.058C70.5077 97.2243 70.1409 108.146 70.1547 118.506L68.4367 131.527H50.1046C50.9718 111.52 53.4328 92.6685 57.5578 74.3184C58.3124 70.9624 59.1004 68.9106 61.1015 67.6821L82.6874 54.4286C84.4106 58.7825 87.2777 62.5901 90.986 65.4492C95.2915 68.7535 100.573 70.534 106 70.511H106.011C111.461 70.5273 116.764 68.7461 121.098 65.4431C124.814 62.6145 127.673 58.8112 129.357 54.4556L150.898 67.6821C152.899 68.9106 153.687 70.9633 154.442 74.3184C158.567 92.6685 161.029 111.52 161.895 131.527H143.563ZM144.058 135.277H162.039C162.079 136.472 162.113 137.673 162.141 138.879H144.533L144.058 135.277ZM160.688 150.555H148.441C147.784 150.56 147.149 150.324 146.655 149.891C146.162 149.459 145.845 148.86 145.764 148.208L145.028 142.628H162.211C162.241 144.735 162.253 146.855 162.249 148.99C162.249 149.404 162.084 149.801 161.792 150.095C161.499 150.388 161.102 150.553 160.688 150.555ZM94.9352 89.496C95.1093 89.6701 95.2475 89.8768 95.3418 90.1043C95.4361 90.3318 95.4846 90.5757 95.4846 90.8219C95.4847 91.0682 95.4362 91.312 95.342 91.5396C95.2478 91.7671 95.1097 91.9738 94.9356 92.148C94.7615 92.3222 94.5548 92.4603 94.3274 92.5546C94.0999 92.6489 93.856 92.6974 93.6098 92.6975C93.3635 92.6975 93.1197 92.649 92.8921 92.5548C92.6646 92.4607 92.4579 92.3226 92.2837 92.1485L89.0078 88.8724L85.7334 92.1485C85.3804 92.4936 84.9056 92.6856 84.412 92.6828C83.9183 92.6801 83.4457 92.4828 83.0966 92.1337C82.7476 91.7846 82.5503 91.312 82.5475 90.8184C82.5447 90.3247 82.7368 89.8499 83.0819 89.497L84.4178 88.161L83.6678 87.411L80.3922 90.6834C80.0399 91.0315 79.5641 91.2261 79.0688 91.2246C78.5735 91.2231 78.0989 91.0257 77.7486 90.6755C77.3984 90.3253 77.2009 89.8507 77.1994 89.3554C77.1979 88.8601 77.3924 88.3843 77.7405 88.0319L82.3415 83.4309C82.5156 83.2568 82.7223 83.1186 82.9498 83.0244C83.1773 82.9302 83.4211 82.8817 83.6674 82.8817C83.9136 82.8817 84.1574 82.9302 84.3849 83.0244C84.6124 83.1186 84.8191 83.2568 84.9932 83.4309L87.07 85.5077L87.6827 84.895C87.8568 84.7209 88.0635 84.5828 88.291 84.4885C88.5185 84.3943 88.7623 84.3458 89.0085 84.3458C89.2548 84.3458 89.4986 84.3943 89.7261 84.4885C89.9536 84.5828 90.1603 84.7209 90.3344 84.895L94.9352 89.496Z" fill="#C89328"/>
</svg>
