<svg width="206" height="206" viewBox="0 0 206 206" fill="none" xmlns="http://www.w3.org/2000/svg">
<path d="M90.0837 135.268C107.876 135.268 122.351 120.793 122.351 103C122.351 85.2079 107.876 70.7329 90.0837 70.7329C72.2914 70.7329 57.8164 85.2079 57.8164 103C57.8164 120.793 72.2914 135.268 90.0837 135.268ZM90.0837 74.2485C105.938 74.2485 118.836 87.1464 118.836 103C118.836 118.854 105.938 131.752 90.0837 131.752C74.2299 131.752 61.332 118.854 61.332 103C61.332 87.1464 74.2299 74.2485 90.0837 74.2485Z" fill="#C89328"/>
<path d="M149.385 64.5656H136.317L137.161 50.0704C137.165 49.9929 137.167 49.9157 137.167 49.8393C137.167 47.6655 135.398 45.8972 133.223 45.8972H46.9447C44.7697 45.897 43 47.6655 43 49.8393C43 49.919 43.0023 49.9994 43.0068 50.0707L47.5803 128.624C47.6368 129.593 48.4681 130.335 49.4372 130.276C50.4066 130.22 51.1465 129.388 51.09 128.419L46.5165 49.8663C46.5163 49.8632 46.5158 49.8424 46.5156 49.8393C46.5156 49.604 46.708 49.4126 46.9447 49.4126H133.223C133.459 49.4126 133.652 49.6038 133.652 49.8391L133.651 49.8663C133.315 55.6274 128.156 144.25 127.821 150.005C127.606 153.697 124.541 156.588 120.844 156.588H59.323C55.6258 156.588 52.5614 153.697 52.3465 150.005L51.5665 136.609C51.51 135.639 50.6848 134.9 49.7096 134.956C48.7402 135.012 48.0003 135.844 48.0568 136.813L48.8368 150.21C49.1597 155.758 53.7656 160.103 59.3228 160.103H120.844C126.401 160.103 131.007 155.758 131.33 150.21L132.299 133.566H142.572C149.277 133.566 154.928 128.763 156.007 122.145L162.82 80.3688C164.165 72.1079 157.794 64.5656 149.385 64.5656ZM135.493 78.7183H148.75L142.113 119.414H133.124L135.493 78.7183ZM159.351 79.8033L152.538 121.579C151.738 126.488 147.546 130.051 142.572 130.051H132.504C132.656 127.442 132.756 125.72 132.919 122.929H142.572C144.038 122.929 145.273 121.879 145.509 120.433L152.322 78.6569C152.613 76.8731 151.251 75.2025 149.385 75.2025H135.697C135.909 71.566 135.819 73.1084 136.112 68.0809H149.385C155.61 68.0812 160.349 73.6616 159.351 79.8033Z" fill="#C89328"/>
<path d="M75.6748 109.814L74.1542 118.68C73.4206 122.956 77.9119 126.217 81.7504 124.199L89.7127 120.013C89.9433 119.892 90.2194 119.892 90.45 120.013L98.4123 124.199C102.246 126.215 106.742 122.955 106.009 118.68L104.488 109.814C104.444 109.557 104.529 109.295 104.716 109.113L111.158 102.834C114.264 99.8055 112.547 94.527 108.256 93.9036L99.354 92.6099C99.0957 92.5724 98.8726 92.4104 98.7573 92.1763L94.7763 84.1099C92.8568 80.2198 87.3057 80.2212 85.3867 84.1099L81.4056 92.1765C81.2903 92.4104 81.0672 92.5724 80.8089 92.6101L71.907 93.9036C67.6138 94.5273 65.9003 99.8067 69.0055 102.834L75.447 109.113C75.6335 109.295 75.7188 109.557 75.6748 109.814ZM72.4121 97.3826L81.3138 96.0891C82.7174 95.8852 83.9303 95.0042 84.5579 93.7323L88.5389 85.6657C89.1701 84.386 90.9907 84.3834 91.6233 85.6657L95.6043 93.732C96.232 95.004 97.4448 95.885 98.8482 96.0889L107.75 97.3824C109.165 97.5881 109.725 99.3201 108.703 100.316L102.262 106.595C101.246 107.585 100.783 109.01 101.023 110.408L102.543 119.274C102.785 120.686 101.309 121.75 100.048 121.087L92.0857 116.901C90.8304 116.241 89.3314 116.242 88.0763 116.901L80.114 121.087C78.851 121.752 77.377 120.683 77.6187 119.274L79.1393 110.408C79.379 109.01 78.9159 107.585 77.9004 106.595L71.4589 100.316C70.4373 99.3199 70.9974 97.5884 72.4121 97.3826Z" fill="#C89328"/>
</svg>
