<svg width="204" height="204" viewBox="0 0 204 204" fill="none" xmlns="http://www.w3.org/2000/svg">
<path d="M132.492 68.7351C132.094 68.0398 131.559 67.4328 130.919 66.9511C130.278 66.4694 129.547 66.1231 128.769 65.9334L119.238 63.6L117.196 55.3678C116.879 54.077 116.137 52.9302 115.09 52.111C114.043 51.2919 112.752 50.8478 111.423 50.8499H92.374C91.0449 50.8483 89.7537 51.2926 88.707 52.1117C87.6603 52.9308 86.9185 54.0773 86.6005 55.3678L84.5591 63.5998L75.0334 65.9315C74.2462 66.1219 73.5066 66.4721 72.8605 66.9604C72.2144 67.4487 71.6756 68.0646 71.2776 68.77C66.3635 75.4369 62.2966 82.6884 59.1704 90.3579C58.9866 90.8129 58.9888 91.3219 59.1766 91.7752C59.3645 92.2286 59.7228 92.5901 60.1746 92.7818C60.6263 92.9735 61.1352 92.9801 61.5918 92.8002C62.0484 92.6203 62.416 92.2683 62.6155 91.8199C64.9689 86.2345 67.7778 80.8521 71.0139 75.7273L73.7361 94.2187C66.4788 110.272 64.0557 128.99 63.1983 139.655H53.2919C53.021 125.712 55.2748 111.836 59.9444 98.6956C60.1011 98.2298 60.0683 97.721 59.8532 97.2791C59.638 96.8373 59.2577 96.4977 58.7944 96.3339C58.331 96.17 57.8218 96.1949 57.3767 96.4032C56.9315 96.6116 56.5862 96.9866 56.4152 97.4474C51.3847 111.573 49.0626 126.521 49.5707 141.508C49.8482 144.873 48.895 150.726 53.7999 150.865H62.6338C63.6474 150.86 64.62 150.464 65.3485 149.759C66.0771 149.054 66.5053 148.095 66.544 147.082C66.927 131.55 69.7143 116.171 74.8066 101.492C76.4855 113.06 75.0081 125.233 72.7668 136.714C72.5413 138.006 72.7531 139.337 73.3684 140.495C73.9838 141.654 74.9677 142.574 76.1647 143.111V146.117C76.1717 147.453 76.6552 148.742 77.5282 149.753C78.4011 150.764 79.6063 151.43 80.9266 151.631C94.8329 153.656 108.959 153.656 122.865 151.631C124.185 151.429 125.389 150.762 126.261 149.751C127.132 148.741 127.615 147.452 127.622 146.117V143.105C128.816 142.566 129.8 141.648 130.419 140.493C131.038 139.338 131.259 138.011 131.047 136.718C128.752 125.257 127.333 112.825 128.975 101.497C135.923 120.324 137.076 140.802 137.259 147.097C137.294 148.109 137.721 149.068 138.451 149.77C139.18 150.472 140.155 150.862 141.167 150.858H149.993C150.98 150.858 151.931 150.487 152.657 149.82C153.384 149.152 153.834 148.236 153.917 147.252C158.49 107.54 134.732 69.9243 132.492 68.7351ZM62.6338 147.123H53.7999C53.7568 147.119 53.7158 147.103 53.6819 147.076C53.6479 147.05 53.6225 147.014 53.6089 146.973C53.5247 145.762 53.475 144.584 53.4169 143.398H62.9524C62.8761 144.842 62.8296 146.049 62.8047 146.932C62.8067 146.956 62.8038 146.98 62.7962 147.003C62.7885 147.026 62.7763 147.047 62.7603 147.064C62.7443 147.082 62.7248 147.097 62.703 147.107C62.6813 147.117 62.6577 147.122 62.6338 147.123ZM129.289 70.6651C129.942 71.4627 129.091 74.4347 129.047 75.3784L115.862 72.2197C116.987 70.6989 117.935 69.0554 118.69 67.3209L127.885 69.5722C128.183 69.6442 128.462 69.779 128.705 69.9674C128.947 70.1559 129.146 70.3937 129.289 70.6651ZM92.8002 72.1651C90.7396 70.0625 89.1453 67.5492 88.1211 64.7892L90.1618 56.5596C94.9792 62.4036 98.2975 69.3351 99.8286 76.7524C97.1799 75.753 94.7813 74.1874 92.8002 72.1651ZM93.3826 54.5928H110.426C106.705 59.1967 103.819 64.4163 101.898 70.0153C99.969 64.4225 97.0881 59.205 93.3826 54.5928ZM113.639 56.5728L115.675 64.7875C114.685 67.4968 113.13 69.9644 111.113 72.0267C109.096 74.089 106.664 75.6986 103.977 76.7489C105.49 69.3317 108.809 62.4019 113.639 56.5728ZM75.917 69.5703L85.1066 67.3206C85.8612 69.0559 86.8102 70.6999 87.9355 72.2212L74.745 75.3774L74.2548 72.045C74.1767 71.4999 74.3034 70.9453 74.6104 70.4882C74.9174 70.0312 75.3829 69.7042 75.917 69.5703ZM122.322 147.928C108.775 149.898 95.0156 149.898 81.4694 147.928C81.0361 147.862 80.6407 147.643 80.3544 147.311C80.0681 146.979 79.9097 146.556 79.9077 146.117V143.92C81.8875 144.018 85.572 145.604 85.9964 142.824C86.1824 140.315 83.1387 140.737 81.4731 140.367L78.2966 139.898C78.0078 139.858 77.73 139.76 77.4801 139.61C77.2302 139.46 77.0133 139.261 76.8427 139.024C76.6681 138.786 76.5438 138.514 76.4773 138.226C76.4109 137.938 76.4037 137.639 76.4562 137.348L78.4739 125.472C79.4092 117.915 79.5067 110.278 78.7645 102.7L75.292 79.0958L90.7594 75.395C93.3873 77.8817 96.5615 79.7177 100.027 80.7557V141.815C97.2552 141.778 94.4848 141.675 91.7215 141.475C91.4765 141.457 91.2303 141.488 90.9972 141.565C90.764 141.643 90.5483 141.765 90.3625 141.926C90.1766 142.087 90.0243 142.283 89.9141 142.502C89.8039 142.722 89.738 142.961 89.7203 143.206C89.7025 143.451 89.7332 143.697 89.8106 143.93C89.8879 144.164 90.0105 144.379 90.1712 144.565C90.3319 144.751 90.5277 144.903 90.7473 145.013C90.9669 145.124 91.206 145.189 91.4511 145.207C102.274 145.989 113.151 145.557 123.879 143.92V146.117C123.877 146.555 123.719 146.978 123.434 147.31C123.148 147.642 122.754 147.861 122.322 147.928ZM130.054 94.2254L130.718 89.753C130.782 89.2658 130.652 88.7729 130.357 88.3807C130.061 87.9884 129.622 87.7282 129.136 87.6562C128.65 87.5843 128.155 87.7063 127.759 87.996C127.362 88.2857 127.095 88.7199 127.015 89.2048L124.998 102.813C124.292 110.392 124.406 118.024 125.337 125.578L127.354 137.325C127.401 137.618 127.389 137.917 127.319 138.206C127.249 138.495 127.123 138.767 126.948 139.006C126.772 139.246 126.551 139.448 126.296 139.601C126.042 139.755 125.76 139.856 125.466 139.9L122.327 140.368C116.179 141.246 109.98 141.718 103.77 141.781V80.7556C107.237 79.7172 110.412 77.8803 113.04 75.3923L128.497 79.096L128.101 81.7754C128.035 82.263 128.164 82.7569 128.46 83.15C128.756 83.5432 129.195 83.804 129.682 83.8761C130.168 83.9481 130.664 83.8256 131.061 83.5351C131.458 83.2446 131.725 82.8093 131.804 82.3236L132.775 75.756C144.688 94.9165 150.847 117.095 150.519 139.655H140.593C139.736 128.841 137.313 110.273 130.054 94.2254ZM149.993 147.115H141.167C141.127 147.118 141.086 147.105 141.055 147.079C141.024 147.053 141.004 147.015 141 146.974C140.974 146.062 140.926 144.849 140.846 143.398H150.381C150.323 144.581 150.277 145.756 150.185 146.969C150.173 147.011 150.148 147.048 150.114 147.075C150.079 147.101 150.037 147.115 149.993 147.115Z" fill="#C89328"/>
<path d="M92.3046 121.497C92.1309 121.323 91.9246 121.186 91.6976 121.091C91.4705 120.997 91.2272 120.949 90.9814 120.949C90.7356 120.949 90.4923 120.997 90.2653 121.091C90.0382 121.186 89.8319 121.323 89.6582 121.497L82.2507 128.905C81.8998 129.256 81.7026 129.732 81.7026 130.228C81.7026 130.724 81.8998 131.2 82.2507 131.551C82.6017 131.902 83.0776 132.099 83.5739 132.099C84.0702 132.099 84.5462 131.902 84.8971 131.551L92.3046 124.144C92.4785 123.97 92.6164 123.764 92.7104 123.537C92.8045 123.31 92.853 123.066 92.853 122.821C92.853 122.575 92.8045 122.331 92.7104 122.104C92.6164 121.877 92.4785 121.671 92.3046 121.497Z" fill="#C89328"/>
<path d="M114.138 121.497C113.785 121.157 113.313 120.97 112.823 120.974C112.332 120.979 111.864 121.176 111.517 121.523C111.171 121.869 110.974 122.338 110.969 122.828C110.964 123.318 111.152 123.791 111.492 124.144L118.899 131.551C119.253 131.891 119.725 132.078 120.215 132.073C120.705 132.069 121.174 131.872 121.52 131.525C121.867 131.179 122.063 130.71 122.068 130.22C122.073 129.73 121.885 129.258 121.546 128.905L114.138 121.497Z" fill="#C89328"/>
</svg>
