<svg width="200" height="200" viewBox="0 0 200 200" fill="none" xmlns="http://www.w3.org/2000/svg">
<path d="M135.997 155.894L129.997 41.894C129.941 40.8339 129.063 40 127.999 40H71.999C70.9349 40 70.0569 40.8339 70.003 41.8961L64.003 155.896C63.947 156.962 64.739 157.886 65.8009 157.992L85.8009 159.992C86.8487 160.082 87.8048 159.366 87.9728 158.324L99.9988 84.448L112.025 158.322C112.185 159.296 113.029 160 113.997 160C114.063 160 114.129 159.996 114.199 159.99L134.199 157.99C135.261 157.884 136.051 156.96 135.997 155.894ZM115.671 155.822L101.973 71.6781C101.815 70.7102 100.979 70.0002 99.9991 70.0002C99.0191 70.0002 98.1831 70.7102 98.0251 71.6802L84.3271 155.824L68.0971 154.2L73.8972 44.0001H126.101L131.901 154.198L115.671 155.822Z" fill="#C89328"/>
<path d="M127.999 47.9999H71.999V52H127.999V47.9999Z" fill="#C89328"/>
<path d="M97.9992 41.9999V68.2178C95.4792 65.8958 94.0012 62.6118 93.9991 59.0598V41.9999H89.999V59.0598C90.003 65.3359 93.491 70.9799 99.105 73.7877C99.3869 73.9297 99.693 73.9998 99.9989 73.9998C100.363 73.9998 100.729 73.8997 101.049 73.7019C101.639 73.3358 101.999 72.6939 101.999 71.9999V41.9999H97.9992Z" fill="#C89328"/>
<path d="M80.0371 49.614L79.7971 50.826C78.8291 55.64 75.8211 59.69 71.511 62H69.999V66.0001H71.9989C72.3109 66.0001 72.617 65.9282 72.895 65.7901C78.5329 62.964 82.4769 57.7982 83.721 51.6081L83.961 50.3882L80.0371 49.614Z" fill="#C89328"/>
<path d="M128.489 61.998C124.177 59.688 121.169 55.6398 120.203 50.8319L119.963 49.6119L116.037 50.3858L116.279 51.614C117.523 57.7961 121.469 62.9619 127.103 65.788C127.381 65.928 127.689 66.0001 127.999 66.0001H129.999V61.998H128.489Z" fill="#C89328"/>
</svg>
