<svg width="200" height="200" viewBox="0 0 200 200" fill="none" xmlns="http://www.w3.org/2000/svg">
<path d="M155.486 96.1462C154.803 93.7319 150.625 78.9681 149.873 76.3115C149.609 75.3773 148.637 74.8349 147.703 75.0986C146.769 75.363 146.226 76.3345 146.49 77.2687L151.172 93.8132L137.104 98.5307V92.699C137.104 91.7282 136.317 90.9412 135.347 90.9412C134.376 90.9412 133.589 91.7282 133.589 92.699V148.987H80.749C79.7782 148.987 78.9912 149.774 78.9912 150.745C78.9912 151.716 79.7782 152.503 80.749 152.503H133.589V153.423C133.589 155.111 132.216 156.484 130.528 156.484H69.4723C67.7843 156.484 66.4111 155.111 66.4111 153.423V152.503H72.5257C73.4965 152.503 74.2835 151.716 74.2835 150.745C74.2835 149.774 73.4965 148.987 72.5257 148.987H66.4111C66.4111 147.711 66.4111 95.1653 66.4111 92.699C66.4111 91.7282 65.6241 90.9412 64.6533 90.9412C63.6825 90.9412 62.8955 91.7282 62.8955 92.699V98.5307L48.8283 93.8132L56.1239 68.0301C57.0973 64.5902 59.7237 61.926 63.1495 60.9034L76.9289 56.7906C77.186 57.3566 77.5123 57.8978 77.9072 58.4003L83.9941 66.1488C85.6523 68.2595 88.4876 69.1246 91.0591 68.2616L93.9188 67.3023V80.8724C93.9188 82.7305 95.4305 84.2423 97.2886 84.2423H102.73C104.588 84.2423 106.099 82.7305 106.099 80.8724V67.3023L108.959 68.2616C111.533 69.1253 114.367 68.2581 116.024 66.1488L122.111 58.4003C122.505 57.899 122.83 57.3597 123.087 56.7953L136.851 60.9034C140.277 61.926 142.903 64.5899 143.876 68.0298L144.267 69.4105C144.532 70.3476 145.506 70.8869 146.437 70.6234C147.371 70.3593 147.914 69.3876 147.65 68.4536L147.259 67.0729C145.956 62.4688 142.441 58.9033 137.856 57.5348L123.806 53.3411C123.782 51.7544 123.292 50.1721 122.331 48.8259L118.645 43.6605C116.996 41.3509 114.336 40 111.535 40H88.4822C85.7257 40 83.0452 41.3172 81.3729 43.6605L77.6866 48.8259C76.7269 50.1707 76.237 51.7511 76.2122 53.3359L62.1438 57.5348C57.559 58.903 54.0438 62.4688 52.7409 67.0729C51.9563 69.8463 45.806 91.581 44.5141 96.1462C43.4271 99.9873 45.5405 103.991 49.3254 105.26L62.8952 109.811V153.423C62.8952 157.05 65.8456 160 69.472 160H130.528C134.154 160 137.105 157.05 137.105 153.423V109.811L150.675 105.26C154.459 103.991 156.573 99.9873 155.486 96.1462ZM100.009 61.0445L89.4848 51.6112H110.533L100.009 61.0445ZM102.583 80.7266H97.4339V66.123L100.009 65.2593L102.583 66.123V80.7266H102.583ZM119.47 50.8682C120.615 52.4734 120.564 54.6777 119.346 56.2286L113.259 63.977C112.508 64.9328 111.229 65.3155 110.077 64.9288C107.489 64.0607 107.524 64.0724 103.43 62.699C114.381 52.6778 115.053 52.7697 116.114 50.6631C116.123 50.647 116.131 50.6308 116.139 50.6144C116.624 49.6321 116.885 48.5413 116.885 47.4236V47.2469L117.678 48.3571L119.47 50.8682ZM113.37 43.8498C113.351 47.4248 113.415 47.5206 113.307 48.0955H86.7101C86.602 47.5152 86.6663 47.3198 86.648 43.8498C87.2327 43.63 87.8538 43.5156 88.4822 43.5156C112.819 43.63 111.796 43.2578 113.37 43.8498ZM80.5481 50.8682L83.1324 47.2469V47.4236C83.1324 48.5402 83.393 49.6302 83.8777 50.6118C83.8863 50.6301 83.8955 50.6484 83.9051 50.6662C84.9668 52.7709 85.6573 52.6966 96.5873 62.699C95.0667 63.2092 93.8379 63.6215 89.9409 64.9288C88.7885 65.3155 87.5095 64.933 86.7586 63.977L80.6716 56.2286C79.4531 54.6777 79.4023 52.4734 80.5481 50.8682ZM50.4436 101.927C48.4723 101.266 47.3578 99.2034 47.8711 97.2004L62.8955 102.239V106.103L50.4436 101.927ZM149.557 101.927L137.105 106.103V102.239L152.129 97.2004C152.643 99.2034 151.528 101.266 149.557 101.927Z" fill="#C89328"/>
</svg>
