<svg width="208" height="208" viewBox="0 0 208 208" fill="none" xmlns="http://www.w3.org/2000/svg">
<path d="M58.5312 104C57.2375 104 56.1875 105.05 56.1875 106.343C56.1875 107.637 57.2375 108.687 58.5312 108.687C59.825 108.687 60.875 107.637 60.875 106.343C60.875 105.05 59.825 104 58.5312 104Z" fill="#C89328"/>
<path d="M57.6598 113.323C56.3684 113.222 55.2404 114.184 55.1377 115.474C55.051 116.565 55.032 116.851 54.8 120.355C54.6577 122.502 54.4351 125.862 54.0668 131.368C53.9804 132.66 54.9575 133.777 56.2491 133.863C57.533 133.952 58.6573 132.977 58.744 131.681C59.1122 126.174 59.3349 122.813 59.4774 120.665C59.7075 117.19 59.7265 116.906 59.8107 115.845C59.9131 114.555 58.95 113.426 57.6598 113.323Z" fill="#C89328"/>
<path d="M163.985 138.89C163.606 135.577 163.42 131.864 163.203 127.564C162.472 113.03 161.47 93.1253 151.577 68.3914V59.4687C151.577 58.1745 150.528 57.125 149.234 57.125C145.135 57.125 62.849 57.125 58.9996 57.125C57.7052 57.125 56.6559 58.1745 56.6559 59.4687V68.3911C46.7084 93.261 45.6145 113.223 44.816 127.799C44.5859 132.001 44.3869 135.631 44.0152 138.89C43.8753 140.116 44.7096 141.24 45.9235 141.462L97.3287 150.837C98.5695 151.063 99.7641 150.267 100.037 149.039L104 131.209L107.963 149.039C108.236 150.268 109.431 151.063 110.671 150.837L162.076 141.462C163.29 141.24 164.124 140.116 163.985 138.89ZM111.031 61.8125H146.89V66.5H111.031V61.8125ZM101.656 61.8125H106.343V66.5H101.656V61.8125ZM96.9685 61.8125V66.5H61.3436V61.8125H96.9685ZM112.049 145.82L106.287 119.897C105.738 117.43 102.246 117.497 101.712 119.897L95.9504 145.82L48.8934 137.239C49.1487 134.402 49.3186 131.3 49.4965 128.055C50.2659 114.013 51.3216 94.8529 60.5953 71.1874C64.547 71.1874 94.632 71.1874 100.748 71.1874L92.4012 96.2275C91.9918 97.4554 92.6555 98.7826 93.8837 99.1921C95.1111 99.6011 96.4388 98.9376 96.8483 97.7097L104 76.2553L111.151 97.7097C111.561 98.9378 112.888 99.6016 114.116 99.1921C115.344 98.7826 116.007 97.4554 115.598 96.2275L107.251 71.1874C121.638 71.1874 139.322 71.1874 147.638 71.1874C156.851 94.7085 157.818 113.804 158.522 127.8C158.697 131.276 158.853 134.377 159.107 137.238L112.049 145.82Z" fill="#C89328"/>
</svg>
