<svg width="224" height="232" viewBox="0 0 224 232" fill="none" xmlns="http://www.w3.org/2000/svg">
<path d="M114.344 186.969C114.344 187.59 114.591 188.186 115.03 188.626C115.47 189.066 116.066 189.312 116.688 189.312H135.438C136.059 189.312 136.655 189.066 137.095 188.626C137.534 188.186 137.781 187.59 137.781 186.969V114.312H149.5C150.122 114.312 150.718 114.066 151.157 113.626C151.597 113.186 151.844 112.59 151.844 111.969V65.0938C151.844 63.2289 151.103 61.4405 149.784 60.1219C148.466 58.8033 146.677 58.0625 144.812 58.0625H123.719V51.0312C123.719 50.4096 123.472 49.8135 123.032 49.374C122.593 48.9344 121.997 48.6875 121.375 48.6875H102.625C102.003 48.6875 101.407 48.9344 100.968 49.374C100.528 49.8135 100.281 50.4096 100.281 51.0312V58.0625H79.1875C77.3227 58.0625 75.5343 58.8033 74.2157 60.1219C72.897 61.4405 72.1562 63.2289 72.1562 65.0938V111.969C72.1562 112.59 72.4032 113.186 72.8427 113.626C73.2823 114.066 73.8784 114.312 74.5 114.312H86.2188V186.969C86.2188 187.59 86.4657 188.186 86.9052 188.626C87.3448 189.066 87.9409 189.312 88.5625 189.312H107.312C107.934 189.312 108.53 189.066 108.97 188.626C109.409 188.186 109.656 187.59 109.656 186.969V119H114.344V186.969ZM119.031 145.445L133.094 122.593V132.399L119.031 155.251V145.445ZM137.781 87.4414L147.156 81.1906V84.9406L137.781 91.1914V87.4414ZM137.781 96.8164L147.156 90.5656V100.25H137.781V96.8164ZM147.156 75.5586L137.781 81.8094V78.0594L147.156 71.8086V75.5586ZM133.094 151.109L119.031 172.203V164.195L133.094 141.343V151.109ZM119.031 184.625V180.641L133.094 159.547V184.625H119.031ZM147.156 109.625H137.781V104.938H147.156V109.625ZM147.156 65.0938V66.1836L137.781 72.4344V62.75H144.812C145.434 62.75 146.03 62.9969 146.47 63.4365C146.909 63.876 147.156 64.4721 147.156 65.0938ZM133.094 104.938H90.9062V62.75H102.625V69.7812C102.625 70.4029 102.872 70.999 103.311 71.4385C103.751 71.8781 104.347 72.125 104.969 72.125H119.031C119.653 72.125 120.249 71.8781 120.689 71.4385C121.128 70.999 121.375 70.4029 121.375 69.7812V62.75H133.094V104.938ZM104.969 155.251L90.9062 132.399V122.593L104.969 145.445V155.251ZM104.969 172.196L90.9062 151.102V141.343L104.969 164.195V172.196ZM76.8438 71.8156L86.2188 78.0664V81.8164L76.8438 75.5656V71.8156ZM76.8438 81.1906L86.2188 87.4414V91.1914L76.8438 84.9406V81.1906ZM86.2188 96.8164V100.25H76.8438V90.5656L86.2188 96.8164ZM107.312 62.75H116.688V67.4375H107.312V62.75ZM104.969 53.375H119.031V58.0625H104.969V53.375ZM79.1875 62.75H86.2188V72.4344L76.8438 66.1836V65.0938C76.8438 64.4721 77.0907 63.876 77.5302 63.4365C77.9698 62.9969 78.5659 62.75 79.1875 62.75ZM76.8438 109.625V104.938H86.2188V109.625H76.8438ZM90.9062 184.625V159.547L104.969 180.641V184.625H90.9062ZM107.312 114.312C106.691 114.312 106.095 114.559 105.655 114.999C105.216 115.439 104.969 116.035 104.969 116.656V136.501L90.9062 113.649V109.625H133.094V113.649L119.031 136.501V116.656C119.031 116.035 118.784 115.439 118.345 114.999C117.905 114.559 117.309 114.312 116.688 114.312H107.312Z" fill="#C89328"/>
<path d="M112 76.8125C109.682 76.8125 107.417 77.4998 105.489 78.7875C103.562 80.0751 102.06 81.9054 101.173 84.0467C100.286 86.188 100.054 88.5443 100.506 90.8175C100.959 93.0907 102.075 95.1788 103.714 96.8177C105.352 98.4566 107.441 99.5727 109.714 100.025C111.987 100.477 114.343 100.245 116.485 99.358C118.626 98.471 120.456 96.969 121.744 95.0418C123.031 93.1147 123.719 90.849 123.719 88.5312C123.715 85.4244 122.479 82.4458 120.282 80.249C118.085 78.0521 115.107 76.8162 112 76.8125ZM112 95.5625C110.609 95.5625 109.25 95.1501 108.094 94.3775C106.937 93.6049 106.036 92.5068 105.504 91.222C104.972 89.9372 104.833 88.5234 105.104 87.1595C105.375 85.7956 106.045 84.5427 107.028 83.5594C108.011 82.5761 109.264 81.9064 110.628 81.6351C111.992 81.3638 113.406 81.503 114.691 82.0352C115.976 82.5674 117.074 83.4686 117.846 84.6249C118.619 85.7812 119.031 87.1406 119.031 88.5312C119.031 90.3961 118.29 92.1845 116.972 93.5031C115.653 94.8217 113.865 95.5625 112 95.5625Z" fill="#C89328"/>
</svg>
