<svg width="206" height="206" viewBox="0 0 206 206" fill="none" xmlns="http://www.w3.org/2000/svg">
<path d="M155.815 111.935C154.905 111.036 153.441 111.032 152.527 111.928L149.08 115.305C147.032 117.312 144.324 118.417 141.456 118.417H138.583C134.16 118.417 130.562 114.818 130.562 110.396C130.562 108.755 129.718 107.279 128.304 106.447C126.89 105.615 125.19 105.594 123.756 106.391L113.045 112.341C99.413 119.915 84.7499 125.319 69.4634 128.404C62.9915 129.71 57.3428 133.409 53.5577 138.819C53.5528 138.826 49.4979 144.891 49.4979 144.891C48.3462 146.613 47.9706 148.755 48.4667 150.768C48.9619 152.776 50.2873 154.494 52.1027 155.481C61.1508 160.4 71.3953 163 81.7284 163H160.655C161.95 163 162.999 161.951 162.999 160.656V129.137C162.999 122.718 160.38 116.448 155.815 111.935ZM141.456 123.104C145.558 123.104 149.43 121.524 152.36 118.654L154.061 116.988C156.783 120.418 158.311 124.734 158.311 129.137V131.458C158.112 131.294 157.907 131.134 157.696 130.98C154.327 128.515 150.112 127.827 146.133 129.091L128.151 134.805C125.612 135.612 122.924 135.173 120.774 133.6C118.998 132.301 117.851 130.416 117.504 128.299C118.619 127.716 119.728 127.123 120.828 126.512L131.215 120.741C133.295 122.227 135.838 123.104 138.583 123.104H141.456V123.104ZM91.1124 127.309L93.1631 133.527C90.4071 134.435 87.6242 135.265 84.8165 136.01C84.5195 133.91 83.9971 131.839 83.249 129.831C85.8934 129.06 88.5151 128.219 91.1124 127.309ZM102.732 122.708L104.846 129.119C102.454 130.14 100.035 131.096 97.5913 131.988L95.5148 125.692C97.944 124.759 100.35 123.764 102.732 122.708ZM85.1008 140.778C94.7845 138.275 104.195 134.82 113.191 130.47C113.96 133.216 115.621 135.638 118.007 137.384C121.377 139.848 125.592 140.537 129.571 139.273L147.553 133.558C150.091 132.752 152.779 133.191 154.929 134.763C157.078 136.336 158.311 138.765 158.311 141.428V145.785H84.565C84.8863 144.126 85.0649 142.451 85.1008 140.778ZM125.876 110.575C125.91 113.023 126.642 115.305 127.878 117.233L120.374 121.402L118.208 114.835L125.876 110.575ZM114.034 117.146L116.194 123.694C113.877 124.927 111.527 126.094 109.149 127.2L107.016 120.733C109.382 119.597 111.723 118.402 114.034 117.146ZM70.3908 132.999C73.1843 132.436 75.9569 131.795 78.7076 131.082C80.5343 135.749 80.91 140.841 79.7853 145.742C72.4127 145.426 65.2846 143.315 58.9372 139.57C61.9319 136.207 65.9188 133.902 70.3908 132.999ZM158.311 158.313H81.7282C72.1746 158.313 62.7047 155.909 54.3414 151.363C53.6709 150.999 53.201 150.389 53.0177 149.646C52.8335 148.899 52.9673 148.135 53.3946 147.496L56.1543 143.368C63.8765 148.023 72.6689 150.473 81.7282 150.473H158.311V158.313Z" fill="#C89328"/>
<path d="M75.3445 97.8484C75.3445 96.554 74.2952 95.5047 73.0008 95.5047H47.6889V87.6648H124.272C133.331 87.6648 142.123 85.2154 149.846 80.5604L152.606 84.6883C153.033 85.3274 153.167 86.0908 152.982 86.8377C152.799 87.5807 152.329 88.1905 151.659 88.555C143.296 93.1015 133.826 95.5047 124.272 95.5047H94.094C92.7996 95.5047 91.7503 96.554 91.7503 97.8484C91.7503 99.1428 92.7996 100.192 94.094 100.192H124.272C134.605 100.192 144.85 97.592 153.898 92.6731C155.713 91.6861 157.038 89.9682 157.534 87.9599C158.03 85.9478 157.654 83.8057 156.502 82.0831C156.502 82.0831 152.447 76.0181 152.442 76.0113C148.657 70.6013 143.009 66.9027 136.537 65.5966C121.25 62.5113 106.587 57.1068 92.9547 49.5334L82.2443 43.583C80.8102 42.7863 79.1101 42.8072 77.6961 43.6392C76.2822 44.4712 75.438 45.9473 75.438 47.5879C75.438 52.0106 71.8397 55.6089 67.4169 55.6089H64.5435C61.676 55.6089 58.9684 54.5039 56.9197 52.497L53.4724 49.1199C52.5586 48.2246 51.0949 48.2279 50.1847 49.1274C45.6196 53.64 43.0015 59.9096 43.0015 66.3288V97.8482C43.0015 99.1426 44.0507 100.192 45.3452 100.192H73.0008C74.2952 100.192 75.3445 99.1428 75.3445 97.8484ZM47.6889 78.6203C47.6889 75.9569 48.9216 73.5276 51.0713 71.9553C53.2209 70.3829 55.9089 69.9437 58.4476 70.7501L76.4296 76.4645C80.4087 77.729 84.6231 77.0404 87.9929 74.5755C90.3795 72.8297 92.0407 70.4084 92.8094 67.6621C101.806 72.012 111.216 75.4673 120.899 77.9701C120.935 79.6431 121.114 81.3176 121.435 82.9774H47.6889V78.6203ZM110.485 62.8842L108.409 69.1801C105.966 68.2876 103.546 67.3316 101.154 66.3107L103.268 59.9002C105.65 60.9556 108.056 61.9505 110.485 62.8842ZM122.751 67.0234C122.003 69.0313 121.481 71.1022 121.183 73.2016C118.376 72.457 115.593 71.6274 112.837 70.719L114.888 64.5011C117.485 65.4107 120.107 66.2521 122.751 67.0234ZM147.063 76.7617C140.715 80.5072 133.587 82.6181 126.215 82.9341C125.09 78.0334 125.466 72.9408 127.292 68.2738C130.043 68.987 132.816 69.6275 135.609 70.1912C140.081 71.094 144.068 73.3992 147.063 76.7617ZM98.9841 57.9245L96.8509 64.3919C94.4732 63.2862 92.1232 62.1188 89.8058 60.886L91.9655 54.3379C94.2775 55.5942 96.6179 56.7892 98.9841 57.9245ZM80.1242 47.7674L87.7921 52.0273L85.626 58.5939L78.1215 54.4247C79.3576 52.4963 80.09 50.2154 80.1242 47.7674ZM51.9394 54.1797L53.64 55.8454C56.5701 58.7157 60.4423 60.2963 64.5438 60.2963H67.4171C70.1623 60.2963 72.7048 59.4188 74.7848 57.9332L85.172 63.7038C86.2719 64.3148 87.3814 64.9073 88.4956 65.4904C88.1495 67.6082 87.0018 69.493 85.2255 70.7921C83.0758 72.3645 80.3871 72.8037 77.8492 71.9972L59.8669 66.2831C55.888 65.0184 51.6736 65.7072 48.3038 68.1721C48.0931 68.326 47.8881 68.4854 47.6889 68.6499V66.329C47.6889 61.9261 49.2169 57.61 51.9394 54.1797Z" fill="#C89328"/>
<path d="M81.8901 96.1909C81.4541 96.6268 81.2034 97.2315 81.2034 97.8479C81.2034 98.4643 81.4541 99.069 81.8901 99.5049C82.326 99.9432 82.9307 100.192 83.5471 100.192C84.1635 100.192 84.7682 99.9432 85.2041 99.5049C85.6401 99.069 85.8909 98.4643 85.8909 97.8479C85.8909 97.2315 85.6401 96.6268 85.2041 96.1909C84.7682 95.7549 84.1635 95.5042 83.5471 95.5042C82.9307 95.5039 82.3263 95.7549 81.8901 96.1909Z" fill="#C89328"/>
</svg>
