<svg width="227" height="196" viewBox="0 0 227 196" fill="none" xmlns="http://www.w3.org/2000/svg">
<path d="M127.715 42.1992C113.618 36.5943 97.909 36.6005 83.8159 42.2165C78.8579 44.1826 80.6576 49.2866 81.1983 53.1948C81.5984 55.8004 81.976 58.2042 82.2997 60.2401C83.7581 72.3623 89.6539 87.7566 77.3471 95.6277C70.5999 100 60.1956 101.187 53.8801 101.173C51.2506 101.204 48.739 102.27 46.8897 104.139C45.0403 106.009 44.0021 108.532 44 111.161C44.0068 111.174 43.9984 116.779 44.0008 116.793C44.001 118.237 44.4342 119.648 45.2444 120.844C46.0547 122.04 47.2048 122.965 48.5462 123.5C63.2207 129.445 80.1464 128.662 94.7877 122.849C94.7306 123.342 94.7777 123.841 94.926 124.315C95.0743 124.789 95.3204 125.226 95.6484 125.599C95.9764 125.971 96.3789 126.271 96.8301 126.478C97.2812 126.685 97.7708 126.795 98.2671 126.801C105.624 126.794 114.512 126.805 121.868 126.801C122.624 126.799 123.359 126.551 123.963 126.095C124.566 125.639 125.005 124.999 125.214 124.272L129.627 108.747C130.464 102.736 129.974 96.6152 128.189 90.8151C127.024 86.8949 126.463 82.8201 126.526 78.7311C126.746 70.9784 127.772 63.2697 129.586 55.7291C130.346 50.9348 133.418 44.5845 127.715 42.1992ZM82.3715 95.6667C82.9732 96.0058 84.5701 97.474 85.3179 97.3815C85.6551 97.3755 85.9819 97.2638 86.2522 97.0621C86.5225 96.8604 86.7227 96.5789 86.8244 96.2574C86.9262 95.9359 86.9245 95.5905 86.8195 95.27C86.7145 94.9495 86.5116 94.67 86.2393 94.4711L84.4517 93.216C85.3537 91.9619 86.1065 90.6071 86.6949 89.1789C87.4891 89.4416 88.2994 89.6524 89.1208 89.8102C89.5066 89.8099 89.8792 89.6702 90.1702 89.417C90.4612 89.1638 90.6509 88.814 90.7045 88.432C90.758 88.05 90.6718 87.6615 90.4616 87.338C90.2515 87.0145 89.9316 86.7778 89.5608 86.6715L87.6792 86.1323C88.104 84.3391 88.2852 82.4969 88.2182 80.6553H91.0254C91.4461 80.6495 91.8476 80.4783 92.143 80.1788C92.4385 79.8792 92.6041 79.4754 92.6041 79.0547C92.6041 78.634 92.4385 78.2302 92.143 77.9307C91.8476 77.6311 91.4461 77.46 91.0254 77.4542H88.0437C87.8969 75.4916 87.6692 73.6757 87.3229 71.3879H90.3362C90.7566 71.3818 91.1578 71.2105 91.453 70.911C91.7482 70.6115 91.9137 70.2079 91.9137 69.7874C91.9137 69.3668 91.7482 68.9632 91.453 68.6637C91.1578 68.3642 90.7566 68.1929 90.3362 68.1868H86.8211C86.5025 66.192 86.1889 64.319 85.8416 62.1362H89.4249C89.8453 62.13 90.2463 61.9586 90.5414 61.6591C90.8365 61.3596 91.0019 60.9561 91.0019 60.5356C91.0019 60.1152 90.8365 59.7116 90.5414 59.4121C90.2463 59.1126 89.8453 58.9413 89.4249 58.935H85.3337C85.1067 57.4982 84.8602 55.9333 84.5939 54.212C94.2774 50.2869 104.862 49.1319 115.164 50.876C115.579 50.9411 116.004 50.8401 116.345 50.5949C116.687 50.3496 116.918 49.9798 116.989 49.5654C117.06 49.151 116.965 48.7252 116.725 48.3802C116.484 48.0352 116.118 47.7987 115.705 47.7217C105.068 45.9107 94.1396 47.0374 84.0966 50.9803C83.9972 49.1744 82.5789 46.1615 84.9413 45.2145C98.0577 39.9639 112.673 39.8595 125.863 44.9221C129.066 45.75 127.693 48.3968 127.327 50.9224C125.487 50.2176 123.679 49.6008 122.105 49.1674C121.697 49.0545 121.26 49.1082 120.892 49.3168C120.523 49.5253 120.252 49.8716 120.138 50.2797C120.024 50.6878 120.077 51.1244 120.284 51.4938C120.492 51.8631 120.838 52.1349 121.246 52.2497C122.843 52.6824 124.837 53.3876 126.66 54.0958C125.191 60.3291 124.171 66.6599 123.608 73.0393C118.878 73.9863 111.34 79.3833 107.799 88.3423C107.649 88.7358 107.66 89.1725 107.83 89.5578C107.999 89.9431 108.314 90.246 108.706 90.4006C109.098 90.5553 109.534 90.5494 109.922 90.3841C110.309 90.2188 110.615 89.9075 110.775 89.5177C113.69 82.1465 119.816 77.5756 123.41 76.3925C123.177 80.0606 123.403 83.7433 124.081 87.3555L85.5868 105.208C82.7554 106.529 79.6005 106.997 76.5077 106.554C73.4148 106.111 70.518 104.776 68.1713 102.714C70.3055 102.204 72.3964 101.528 74.4247 100.691C75.2359 101.153 77.8304 103.359 78.535 103.207C78.8727 103.201 79.2 103.089 79.4705 102.887C79.7411 102.685 79.9412 102.403 80.0426 102.08C80.1439 101.758 80.1414 101.412 80.0354 101.092C79.9293 100.771 79.7252 100.492 79.4517 100.293L77.7401 99.1002C79.4481 98.1956 81.0095 97.038 82.3715 95.6667ZM121.868 123.6H118.692V120.657C118.692 120.233 118.523 119.825 118.223 119.525C117.923 119.225 117.516 119.056 117.091 119.056C116.667 119.056 116.259 119.225 115.959 119.525C115.659 119.825 115.49 120.233 115.49 120.657V123.6H112.003V120.657C111.998 120.236 111.827 119.835 111.527 119.539C111.227 119.243 110.824 119.078 110.403 119.078C109.982 119.078 109.578 119.243 109.278 119.539C108.979 119.835 108.808 120.236 108.802 120.657V123.6H105.295V120.657C105.289 120.236 105.118 119.835 104.818 119.539C104.519 119.243 104.115 119.078 103.694 119.078C103.273 119.078 102.869 119.243 102.57 119.539C102.27 119.835 102.099 120.236 102.093 120.657V123.6H98.2671C98.1934 123.6 98.1227 123.571 98.0706 123.519C98.0184 123.466 97.989 123.396 97.9889 123.322C97.9979 123.011 98.0088 120.503 97.9311 120.279C97.8215 119.913 97.5865 119.598 97.2675 119.389C96.9485 119.18 96.5658 119.09 96.1869 119.135C92.8216 119.914 89.9915 121.3 86.6253 122.162C74.5211 125.655 61.6075 125.099 49.8482 120.579C49.0711 120.297 48.3999 119.782 47.9263 119.105C47.4527 118.427 47.1997 117.62 47.202 116.793L47.2025 114.541C50.4217 116.298 53.8617 117.617 57.4306 118.461C57.635 118.512 57.8474 118.522 58.0557 118.491C58.264 118.46 58.4641 118.388 58.6446 118.279C58.825 118.17 58.9821 118.027 59.1071 117.858C59.232 117.688 59.3222 117.495 59.3725 117.291C59.4228 117.086 59.4322 116.874 59.4002 116.666C59.3682 116.458 59.2955 116.258 59.186 116.078C59.0766 115.898 58.9328 115.741 58.7627 115.617C58.5926 115.493 58.3997 115.403 58.1949 115.354C55.16 114.729 48.5299 112.184 47.2246 110.591C47.3663 108.91 48.129 107.342 49.3639 106.193C50.5988 105.043 52.2175 104.395 53.9043 104.375C57.431 104.319 60.9507 104.041 64.4425 103.543C67.2073 106.613 70.8851 108.714 74.934 109.537C78.9828 110.359 83.1889 109.86 86.9325 108.112L124.815 90.5445C126.541 95.8891 127.153 101.531 126.615 107.121C118.874 109.258 110.894 110.406 102.866 110.539C96.4693 110.61 90.7163 113.018 84.5826 114.936C77.9945 116.833 71.0889 117.366 64.2877 116.504C63.87 116.458 63.4509 116.578 63.1208 116.838C62.7908 117.098 62.5762 117.477 62.5235 117.894C62.4708 118.311 62.5841 118.732 62.8391 119.066C63.094 119.4 63.4701 119.621 63.8861 119.68C71.1175 120.597 78.4599 120.03 85.4649 118.014C91.377 116.206 96.8465 113.804 102.997 113.738C110.666 113.557 118.292 112.541 125.741 110.709L122.135 123.397C122.119 123.455 122.084 123.507 122.035 123.543C121.987 123.58 121.928 123.6 121.868 123.6Z" fill="#C89328"/>
<path d="M180.515 72.5993C166.418 66.9943 150.709 67.0005 136.616 72.6165C131.658 74.5826 133.458 79.6866 133.998 83.5948C134.398 86.2004 134.776 88.6042 135.1 90.6401C136.558 102.762 142.454 118.157 130.147 126.028C123.4 130.4 112.996 131.587 106.68 131.573C104.051 131.604 101.539 132.67 99.6897 134.539C97.8404 136.409 96.8022 138.932 96.8 141.561C96.8069 141.574 96.7984 147.179 96.8008 147.193C96.801 148.637 97.2342 150.049 98.0445 151.244C98.8547 152.44 100.005 153.365 101.346 153.9C116.021 159.845 132.946 159.062 147.588 153.249C147.531 153.742 147.578 154.241 147.726 154.715C147.874 155.189 148.12 155.626 148.448 155.999C148.776 156.371 149.179 156.671 149.63 156.878C150.081 157.085 150.571 157.195 151.067 157.201C158.424 157.194 167.312 157.205 174.668 157.201C175.424 157.199 176.159 156.951 176.763 156.495C177.366 156.039 177.806 155.399 178.014 154.672L182.427 139.147C183.265 133.136 182.774 127.015 180.989 121.215C179.824 117.295 179.263 113.22 179.326 109.131C179.546 101.378 180.572 93.6697 182.386 86.1291C183.146 81.3349 186.218 74.9845 180.515 72.5993ZM135.172 126.067C135.773 126.406 137.37 127.874 138.118 127.782C138.455 127.776 138.782 127.664 139.052 127.462C139.323 127.26 139.523 126.979 139.624 126.657C139.726 126.336 139.725 125.991 139.62 125.67C139.515 125.35 139.312 125.07 139.039 124.871L137.252 123.616C138.154 122.362 138.907 121.007 139.495 119.579C140.289 119.842 141.099 120.052 141.921 120.21C142.307 120.21 142.679 120.07 142.97 119.817C143.261 119.564 143.451 119.214 143.505 118.832C143.558 118.45 143.472 118.061 143.262 117.738C143.052 117.415 142.732 117.178 142.361 117.071L140.479 116.532C140.904 114.739 141.085 112.897 141.018 111.055H143.825C144.246 111.05 144.648 110.878 144.943 110.579C145.239 110.279 145.404 109.875 145.404 109.455C145.404 109.034 145.239 108.63 144.943 108.331C144.648 108.031 144.246 107.86 143.825 107.854H140.844C140.697 105.892 140.469 104.076 140.123 101.788H143.136C143.557 101.782 143.958 101.611 144.253 101.311C144.548 101.012 144.714 100.608 144.714 100.187C144.714 99.7669 144.548 99.3632 144.253 99.0637C143.958 98.7642 143.557 98.5929 143.136 98.5868H139.621C139.303 96.592 138.989 94.719 138.642 92.5362H142.225C142.645 92.53 143.046 92.3586 143.341 92.0591C143.637 91.7596 143.802 91.3561 143.802 90.9356C143.802 90.5152 143.637 90.1116 143.341 89.8122C143.046 89.5127 142.645 89.3413 142.225 89.3351H138.134C137.907 87.8983 137.66 86.3333 137.394 84.612C147.077 80.6869 157.662 79.5319 167.964 81.276C168.379 81.3411 168.804 81.2401 169.145 80.9949C169.487 80.7496 169.718 80.3798 169.789 79.9654C169.86 79.551 169.765 79.1253 169.525 78.7802C169.284 78.4352 168.918 78.1987 168.505 78.1217C157.868 76.3107 146.94 77.4374 136.897 81.3803C136.797 79.5744 135.379 76.5615 137.741 75.6145C150.858 70.364 165.473 70.2595 178.663 75.3222C181.866 76.1501 180.493 78.7968 180.127 81.3224C178.287 80.6177 176.479 80.0008 174.905 79.5674C174.497 79.4545 174.061 79.5083 173.692 79.7168C173.323 79.9253 173.052 80.2716 172.938 80.6797C172.824 81.0879 172.877 81.5245 173.085 81.8938C173.292 82.2631 173.638 82.535 174.046 82.6498C175.643 83.0824 177.637 83.7876 179.46 84.4958C177.991 90.7292 176.971 97.0599 176.408 103.439C171.678 104.386 164.14 109.783 160.599 118.742C160.449 119.136 160.46 119.573 160.63 119.958C160.799 120.343 161.114 120.646 161.506 120.801C161.898 120.955 162.334 120.949 162.722 120.784C163.109 120.619 163.416 120.308 163.575 119.918C166.49 112.547 172.616 107.976 176.21 106.793C175.977 110.461 176.203 114.143 176.882 117.756L138.387 135.608C135.555 136.929 132.401 137.397 129.308 136.954C126.215 136.511 123.318 135.176 120.971 133.114C123.106 132.604 125.196 131.928 127.225 131.091C128.036 131.553 130.63 133.759 131.335 133.607C131.673 133.601 132 133.489 132.271 133.287C132.541 133.085 132.741 132.803 132.843 132.48C132.944 132.158 132.941 131.812 132.835 131.492C132.729 131.171 132.525 130.892 132.252 130.694L130.54 129.5C132.248 128.596 133.81 127.438 135.172 126.067ZM174.668 154H171.492V151.057C171.492 150.633 171.323 150.225 171.023 149.925C170.723 149.625 170.316 149.456 169.891 149.456C169.467 149.456 169.059 149.625 168.759 149.925C168.459 150.225 168.291 150.633 168.291 151.057V154H164.803V151.057C164.798 150.636 164.627 150.235 164.327 149.939C164.027 149.644 163.624 149.478 163.203 149.478C162.782 149.478 162.378 149.644 162.078 149.939C161.779 150.235 161.608 150.636 161.602 151.057V154H158.095V151.057C158.089 150.636 157.918 150.235 157.618 149.939C157.319 149.644 156.915 149.478 156.494 149.478C156.073 149.478 155.669 149.644 155.37 149.939C155.07 150.235 154.899 150.636 154.894 151.057V154H151.067C150.993 154 150.923 153.971 150.871 153.919C150.818 153.866 150.789 153.796 150.789 153.722C150.798 153.411 150.809 150.903 150.731 150.679C150.622 150.313 150.387 149.998 150.068 149.789C149.749 149.58 149.366 149.49 148.987 149.535C145.622 150.314 142.792 151.7 139.425 152.562C127.321 156.055 114.408 155.499 102.648 150.979C101.871 150.697 101.2 150.182 100.726 149.505C100.253 148.827 99.9998 148.02 100.002 147.193L100.003 144.941C103.222 146.698 106.662 148.017 110.231 148.861C110.435 148.912 110.647 148.922 110.856 148.891C111.064 148.86 111.264 148.788 111.445 148.679C111.625 148.571 111.782 148.427 111.907 148.258C112.032 148.088 112.122 147.895 112.173 147.691C112.223 147.486 112.232 147.274 112.2 147.066C112.168 146.858 112.096 146.658 111.986 146.478C111.877 146.298 111.733 146.141 111.563 146.017C111.393 145.893 111.2 145.803 110.995 145.754C107.96 145.129 101.33 142.584 100.025 140.991C100.166 139.31 100.929 137.742 102.164 136.593C103.399 135.443 105.018 134.795 106.704 134.775C110.231 134.719 113.751 134.441 117.243 133.943C120.007 137.013 123.685 139.114 127.734 139.937C131.783 140.759 135.989 140.26 139.733 138.512L177.615 120.944C179.341 126.289 179.953 131.931 179.415 137.521C171.674 139.658 163.694 140.806 155.666 140.939C149.269 141.01 143.516 143.418 137.383 145.337C130.795 147.233 123.889 147.766 117.088 146.904C116.67 146.858 116.251 146.978 115.921 147.238C115.591 147.498 115.376 147.877 115.324 148.294C115.271 148.711 115.384 149.132 115.639 149.466C115.894 149.8 116.27 150.021 116.686 150.08C123.918 150.997 131.26 150.43 138.265 148.414C144.177 146.606 149.647 144.204 155.797 144.138C163.466 143.957 171.092 142.941 178.541 141.109L174.935 153.797C174.919 153.855 174.884 153.907 174.835 153.943C174.787 153.98 174.728 154 174.668 154Z" fill="#C89328"/>
</svg>
