<svg width="206" height="206" viewBox="0 0 206 206" fill="none" xmlns="http://www.w3.org/2000/svg">
<path d="M138.862 45.2315H129.265C128.938 43.9509 127.778 43 126.398 43H122.432C121.051 43 119.891 43.9509 119.564 45.2315H97.8647C96.894 45.2315 96.1069 46.0185 96.1069 46.9893C96.1069 47.9601 96.894 48.7471 97.8647 48.7471H119.469V56.7236H86.5313V48.7471H89.8543C90.8251 48.7471 91.6121 47.9601 91.6121 46.9893C91.6121 46.0185 90.8251 45.2315 89.8543 45.2315H86.4362C86.109 43.9509 84.9493 43 83.5683 43H79.6025C78.2218 43 77.0619 43.9509 76.7351 45.2315H67.1382C66.1674 45.2315 65.3804 46.0185 65.3804 46.9893V58.4814C65.3804 59.4522 66.1674 60.2392 67.1382 60.2392H68.498V78.5697C67.6812 79.1484 67.1457 80.099 67.1457 81.1741V84.9152C67.1457 85.9902 67.6815 86.9406 68.498 87.5195V90.2048C67.6812 90.7834 67.1457 91.7341 67.1457 92.8089V96.55C67.1457 97.6251 67.6815 98.5755 68.498 99.1544V133.135C68.498 134.106 69.2851 134.893 70.2558 134.893C71.2266 134.893 72.0137 134.106 72.0137 133.135V132.198L77.9115 127.836C78.4292 128.005 78.9812 128.097 79.5544 128.097H86.2801C89.2182 128.097 91.6083 125.707 91.6083 122.769V117.707L93.1163 116.592V135.018L72.0137 142.826V141.146C72.0137 140.175 71.2266 139.388 70.2558 139.388C69.2851 139.388 68.498 140.175 68.498 141.146V154.93C68.498 155.901 69.2851 156.688 70.2558 156.688H72.7749V161.242C72.7749 162.213 73.5619 163 74.5327 163H91.268C92.2388 163 93.0258 162.213 93.0258 161.242V156.688H94.8741C95.8449 156.688 96.6319 155.901 96.6319 154.93V99.1539C97.4483 98.575 97.9838 97.6248 97.9838 96.55V92.8089C97.9838 91.7343 97.4483 90.7839 96.6319 90.2052V87.5191C97.4483 86.9402 97.9838 85.99 97.9838 84.9152V81.1741C97.9838 80.0995 97.4483 79.1491 96.6319 78.5704V75.884H109.368V154.931C109.368 155.901 110.155 156.689 111.126 156.689H112.974V161.242C112.974 162.213 113.761 163 114.732 163H131.467C132.438 163 133.225 162.213 133.225 161.242V156.688H135.744C136.715 156.688 137.502 155.901 137.502 154.93V77.2396C137.502 76.2688 136.715 75.4818 135.744 75.4818C134.773 75.4818 133.986 76.2688 133.986 77.2396V81.9934L112.883 97.5995V74.1257C112.883 73.1549 112.096 72.3679 111.125 72.3679H105.634V60.239H119.468V62.6793C119.468 64.3129 120.797 65.6418 122.431 65.6418H126.397C128.031 65.6418 129.36 64.3129 129.36 62.6793V60.239H133.986V69.2291C133.986 70.1999 134.773 70.987 135.744 70.987C136.715 70.987 137.502 70.1999 137.502 69.2291V60.239H138.861C139.832 60.239 140.619 59.452 140.619 58.4812V46.9893C140.619 46.0183 139.833 45.2315 138.862 45.2315ZM129.71 159.484H116.49V156.688H129.71V159.484ZM133.986 153.172H112.884V138.862L133.986 131.054V153.172ZM112.884 101.972L133.986 86.3659V119.896L132.126 120.584V109.328C132.126 106.39 129.736 104 126.798 104H120.072C117.134 104 114.744 106.39 114.744 109.328V122.769C114.744 124.202 115.314 125.504 116.238 126.463L112.884 127.704V101.972ZM122.558 122.878C125.11 122.878 127.186 120.802 127.186 118.25V115.976C127.186 113.424 125.11 111.348 122.558 111.348H118.26V109.327C118.26 108.328 119.073 107.515 120.073 107.515H126.798C127.798 107.515 128.611 108.328 128.611 109.327V122.768C128.611 123.768 127.798 124.581 126.798 124.581H120.072C119.11 124.581 118.322 123.827 118.265 122.878H122.558ZM118.26 119.362V114.864H122.558C123.171 114.864 123.67 115.363 123.67 115.976V118.251C123.67 118.864 123.171 119.362 122.558 119.362H118.26ZM112.883 131.453L121.695 128.193C121.768 128.166 121.838 128.132 121.905 128.097H126.798C129.155 128.097 131.158 126.558 131.859 124.432L133.986 123.645V127.306L112.883 135.114V131.453ZM80.1556 46.5156H83.0154V62.1262H80.1556V46.5156ZM68.896 56.7236V48.7471H76.64V56.7236H68.896ZM86.2803 124.581H79.5547C78.5551 124.581 77.742 123.768 77.742 122.769V109.328C77.742 108.328 78.5551 107.515 79.5547 107.515H86.2803C87.2799 107.515 88.093 108.328 88.093 109.328V111.348H83.795C81.2433 111.348 79.1672 113.425 79.1672 115.976V118.251C79.1672 120.802 81.2431 122.878 83.795 122.878H88.0873C88.0304 123.826 87.2429 124.581 86.2803 124.581ZM88.0932 119.362H83.7952V119.362C83.1821 119.362 82.6831 118.863 82.6831 118.25V115.976C82.6831 115.363 83.1819 114.864 83.7952 114.864H88.0932V119.362ZM91.6083 113.335V109.328C91.6083 106.39 89.2182 104 86.2801 104H79.5544C76.6163 104 74.2262 106.39 74.2262 109.328V122.769C74.2262 123.804 74.524 124.771 75.0373 125.59L72.0137 127.825V99.7424H93.1163V112.22L91.6083 113.335ZM72.0137 146.574L93.1163 138.766V141.842L72.0137 149.65V146.574ZM89.5105 159.484H76.2905V156.688H89.5102V159.484H89.5105ZM93.1165 153.172H72.624L93.1165 145.59V153.172ZM94.4682 96.2268H70.6615V93.1323H94.4684L94.4682 96.2268ZM72.0141 89.6167V88.1073H93.1168V89.6167H72.0141ZM94.4682 84.5915H70.6615V81.497H94.4684L94.4682 84.5915ZM102.119 72.3677H94.8741C93.9033 72.3677 93.1163 73.1549 93.1163 74.1257V77.9816H72.0137V60.239H76.64V62.6793C76.64 64.3129 77.9689 65.6418 79.6025 65.6418H83.5683C85.2019 65.6418 86.5311 64.3129 86.5311 62.6793V60.239H97.4965V65.7965C97.4965 66.7673 98.2836 67.5543 99.2544 67.5543H102.119V72.3677ZM102.119 64.0389H101.012V60.239H102.119V64.0389ZM125.844 62.1262H122.984V46.5156H125.844V62.1262ZM137.104 56.7236H129.36V48.7471H137.104V56.7236Z" fill="#C89328"/>
</svg>
