<svg width="208" height="208" viewBox="0 0 208 208" fill="none" xmlns="http://www.w3.org/2000/svg">
<path d="M151.045 132.11C152.53 122.666 152.604 112.136 151.253 102.455C151.047 100.986 150.809 99.555 150.545 98.1543C150.538 98.1131 150.532 98.0734 150.522 98.033C149.122 90.666 146.906 84.2482 143.908 78.916C143.883 78.871 143.857 78.8283 143.828 78.7863C143.819 78.7703 143.809 78.7543 143.799 78.7383C140.12 72.7462 135.249 67.694 129.32 63.7221C123.809 60.0303 117.492 57.3348 110.544 55.7105C100.104 53.2729 87.6868 53.4492 77.3284 56.182C76.284 56.4574 75.6614 57.5271 75.9368 58.5715C76.2123 59.6152 77.2819 60.2378 78.3256 59.9624C80.6465 59.3505 83.0772 58.876 85.5659 58.5364C98.6472 61.1434 110.34 66.3283 119.393 73.5434C126.303 79.0503 131.183 85.504 133.195 91.6739L106.557 83.4822C100.809 81.7145 95.7915 83.0885 92.7909 87.2519C89.0731 92.4093 89.5026 100.533 93.8117 106.569C102.949 119.366 113.254 125.688 145.644 138.121C145.315 139.245 144.97 140.294 144.646 141.079C143.871 142.528 137.97 148.767 133.836 149.926C133.032 150.151 132.427 150.142 132.038 149.901C131.986 149.868 131.933 149.838 131.878 149.81L123.746 145.744L123.746 145.743C123.746 145.743 123.746 145.743 123.745 145.743L106.183 136.96C106.182 136.96 106.181 136.959 106.18 136.958C101.43 134.583 90.1092 126.656 79.8103 116.469C71.3508 108.101 61.2793 95.925 61.1481 85.2965C61.9957 81.4391 63.295 78.1699 65.0757 75.4096C65.5159 74.7267 65.4884 73.8433 65.0062 73.1894L60.5972 67.2103C62.262 66.297 63.9793 65.422 65.9553 64.4759C66.9296 64.0098 67.3408 62.8425 66.8747 61.8682C66.4085 60.8947 65.2412 60.4827 64.2677 60.9496C61.438 62.3038 59.1141 63.5222 56.7337 64.9001C56.2523 65.1786 55.9128 65.6493 55.7991 66.1933C55.6854 66.7373 55.8098 67.3049 56.1394 67.752L61.0802 74.4521C59.3803 77.3863 58.1268 80.7578 57.2914 84.6297C57.2823 84.6678 57.2739 84.706 57.267 84.7456C56.8184 86.8529 56.4903 89.1058 56.2866 91.5228C55.6465 99.0973 56.295 107.163 56.8161 113.644C56.8237 113.734 56.8367 113.822 56.8558 113.908C57.0854 115.684 58.1741 117.262 59.7549 118.107C59.4246 119.555 59.4955 121.073 59.9785 122.523C60.6735 124.608 62.133 126.295 64.0884 127.273L113.603 152.037C114.779 152.625 116.029 152.904 117.263 152.904C119.644 152.904 121.955 151.861 123.53 150.007L130.056 153.271C130.869 153.757 131.787 154 132.799 154C133.475 154 134.195 153.891 134.953 153.673C140.438 152.097 147.176 144.819 148.179 142.756C148.195 142.724 148.211 142.69 148.224 142.656C148.793 141.302 149.387 139.345 149.887 137.445C149.888 137.439 149.89 137.433 149.891 137.426C150.465 135.24 150.912 133.133 151.045 132.11ZM77.0607 119.249C79.5158 121.676 82.0327 123.981 84.5145 126.124L63.0409 115.384H63.0401C63.0401 115.384 63.0401 115.383 63.0394 115.383L61.6325 114.679C61.1107 114.419 60.7719 113.915 60.7254 113.331C60.7201 113.26 60.7094 113.188 60.6964 113.118C60.2951 108.132 59.8297 102.212 59.9525 96.4041C63.7298 104.856 70.8099 113.066 77.0607 119.249ZM115.352 148.54L65.8371 123.776C64.8155 123.266 64.0526 122.381 63.6879 121.287C63.5429 120.854 63.4712 120.41 63.4659 119.967L119.826 148.155C118.565 149.08 116.843 149.286 115.352 148.54ZM121.829 70.4856C115.241 65.235 107.35 61.0099 98.5877 57.9986C102.399 58.1939 106.145 58.699 109.654 59.5183C119.112 61.7293 132.136 67.2133 140.467 80.7822C140.477 80.7982 140.486 80.8142 140.494 80.8302C140.516 80.8676 140.538 80.9042 140.561 80.9401C142.892 85.1157 144.717 90.0336 146.019 95.6167L137.61 93.0311C135.939 85.2606 130.381 77.3009 121.829 70.4856ZM96.9939 104.297C93.6835 99.6603 93.2403 93.315 95.9624 89.5384C97.9499 86.7812 101.304 85.9579 105.408 87.2191L111.519 89.099L107.643 115.449C103.306 112.129 100.062 108.595 96.9939 104.297ZM111.223 117.977L115.3 90.2617L146.906 99.9807C147.078 100.968 147.237 101.972 147.38 102.995C148.681 112.314 148.61 122.448 147.179 131.528C147.175 131.548 147.173 131.568 147.17 131.588C147.098 132.157 146.903 133.151 146.634 134.313C129.519 127.733 118.812 122.941 111.223 117.977Z" fill="#C89328"/>
<path d="M70.0539 62.5045C70.2805 62.5045 70.5117 62.4648 70.736 62.3809L70.7802 62.3641C71.7896 61.9811 72.2977 60.8527 71.9147 59.8434C71.5317 58.834 70.4033 58.3251 69.3932 58.7089C69.3924 58.7089 69.3718 58.7165 69.3672 58.7188C68.3571 59.0972 67.8444 60.2218 68.2221 61.2319C68.515 62.0193 69.2604 62.5045 70.0539 62.5045Z" fill="#C89328"/>
<path d="M68.4608 67.478C67.82 66.6091 66.5962 66.4244 65.7272 67.0645C64.8582 67.7054 64.6728 68.9292 65.3137 69.7981L68.174 73.6777C68.5569 74.1972 69.149 74.4719 69.7487 74.4719C70.1523 74.4719 70.5589 74.3475 70.9076 74.0904C71.7765 73.4496 71.9619 72.2258 71.3211 71.3568L68.4608 67.478Z" fill="#C89328"/>
<path d="M72.3419 67.2126L75.2022 71.0921C75.5851 71.6117 76.1772 71.8863 76.7769 71.8863C77.1797 71.8863 77.5863 71.762 77.9358 71.5049C78.8047 70.864 78.9901 69.6402 78.3493 68.7712L75.489 64.8925C74.8482 64.0235 73.6244 63.8389 72.7554 64.479C71.8864 65.1198 71.701 66.3436 72.3419 67.2126Z" fill="#C89328"/>
<path d="M119.992 141.109C120.272 141.249 120.569 141.314 120.862 141.314C121.58 141.314 122.272 140.917 122.613 140.23C123.094 139.264 122.7 138.09 121.734 137.609L121.692 137.589C120.726 137.108 119.552 137.501 119.071 138.468C118.59 139.434 118.984 140.608 119.951 141.089L119.992 141.109Z" fill="#C89328"/>
<path d="M132.186 147.208C132.467 147.348 132.765 147.416 133.059 147.416C133.776 147.416 134.466 147.02 134.809 146.335C135.292 145.369 134.9 144.195 133.935 143.712L126.76 140.123C125.795 139.64 124.621 140.032 124.138 140.998C123.655 141.964 124.046 143.138 125.011 143.621L132.186 147.208Z" fill="#C89328"/>
</svg>
