<svg width="202" height="202" viewBox="0 0 202 202" fill="none" xmlns="http://www.w3.org/2000/svg">
<path d="M71 142.25H74.75V146H71V142.25Z" fill="#C89328"/>
<path d="M78.5 142.25H82.25V146H78.5V142.25Z" fill="#C89328"/>
<path d="M86 142.25H89.75V146H86V142.25Z" fill="#C89328"/>
<path d="M146.3 84.2375C145.203 84.1927 144.11 84.3781 143.089 84.7817C142.069 85.1854 141.144 85.7984 140.375 86.5812L136.625 90.3312V65.375C136.626 64.3898 136.432 63.4141 136.056 62.5036C135.68 61.5932 135.128 60.7658 134.431 60.0688C133.671 59.3041 132.755 58.7123 131.746 58.3337C130.736 57.9551 129.657 57.7987 128.581 57.875C127.442 57.9668 126.342 58.3335 125.375 58.9437V52.25C125.375 50.2609 124.585 48.3532 123.178 46.9467C121.772 45.5402 119.864 44.75 117.875 44.75C115.886 44.75 113.978 45.5402 112.572 46.9467C111.165 48.3532 110.375 50.2609 110.375 52.25V57.05C109.243 56.3683 107.947 56.0055 106.625 56C104.636 56 102.728 56.7902 101.322 58.1967C99.9152 59.6032 99.125 61.5109 99.125 63.5V66.425C97.9925 65.7433 96.6968 65.3805 95.375 65.375C94.3974 65.375 93.4293 65.5661 92.525 65.9375C91.4739 65.5071 90.3405 65.315 89.2062 65.375C88.0684 65.4611 86.9683 65.8213 86 66.425V59.75C86 57.7609 85.2098 55.8532 83.8033 54.4467C82.3968 53.0402 80.4891 52.25 78.5 52.25C76.5109 52.25 74.6032 53.0402 73.1967 54.4467C71.7902 55.8532 71 57.7609 71 59.75V64.55C69.8675 63.8683 68.5718 63.5055 67.25 63.5C65.2609 63.5 63.3532 64.2902 61.9467 65.6967C60.5402 67.1032 59.75 69.0109 59.75 71V73.925C58.6175 73.2433 57.3218 72.8805 56 72.875C54.0109 72.875 52.1032 73.6652 50.6967 75.0717C49.2902 76.4782 48.5 78.3859 48.5 80.375V114.444C48.517 118.335 50.0585 122.064 52.7937 124.831C54.4594 126.5 55.5384 128.665 55.8687 131H54.125C53.6277 131 53.1508 131.198 52.7992 131.549C52.4475 131.901 52.25 132.378 52.25 132.875V136.625H50.375C49.8777 136.625 49.4008 136.823 49.0492 137.174C48.6975 137.526 48.5 138.003 48.5 138.5V149.75C48.5 150.247 48.6975 150.724 49.0492 151.076C49.4008 151.427 49.8777 151.625 50.375 151.625H52.25V155.375C52.25 155.872 52.4475 156.349 52.7992 156.701C53.1508 157.052 53.6277 157.25 54.125 157.25H95.375C95.8723 157.25 96.3492 157.052 96.7008 156.701C97.0525 156.349 97.25 155.872 97.25 155.375V149.75H134.75C135.247 149.75 135.724 149.552 136.076 149.201C136.427 148.849 136.625 148.372 136.625 147.875V125.375C136.625 124.878 136.427 124.401 136.076 124.049C135.724 123.698 135.247 123.5 134.75 123.5H132.875C132.874 120.381 133.984 117.363 136.006 114.987L151.306 97.025C152.009 96.3131 152.564 95.4698 152.94 94.5433C153.317 93.6167 153.507 92.6251 153.5 91.625C153.516 89.7761 152.848 87.9866 151.625 86.6C150.947 85.8623 150.124 85.272 149.208 84.8656C148.292 84.4592 147.302 84.2454 146.3 84.2375ZM114.125 52.25C114.125 51.2554 114.52 50.3016 115.223 49.5983C115.927 48.8951 116.88 48.5 117.875 48.5C118.87 48.5 119.823 48.8951 120.527 49.5983C121.23 50.3016 121.625 51.2554 121.625 52.25V95.6187L114.125 92.9188V52.25ZM97.25 90.8375L102.762 92.825C102.141 93.1665 101.567 93.5889 101.056 94.0812L97.3063 97.8312L97.25 90.8375ZM102.875 63.5C102.875 62.5054 103.27 61.5516 103.973 60.8484C104.677 60.1451 105.63 59.75 106.625 59.75C107.62 59.75 108.573 60.1451 109.277 60.8484C109.98 61.5516 110.375 62.5054 110.375 63.5V91.625L102.875 88.9437V63.5ZM99.125 72.875V87.5375L97.25 86.8625V72.875C97.2449 71.6045 96.9088 70.3573 96.275 69.2562C97.0849 69.4565 97.8049 69.921 98.3211 70.5765C98.8373 71.2319 99.1202 72.0407 99.125 72.875ZM74.75 59.75C74.75 58.7554 75.1451 57.8016 75.8484 57.0984C76.5516 56.3951 77.5054 56 78.5 56C79.4946 56 80.4484 56.3951 81.1516 57.0984C81.8549 57.8016 82.25 58.7554 82.25 59.75V103.119L74.75 100.419V59.75ZM63.5 71C63.5 70.0054 63.8951 69.0516 64.5984 68.3484C65.3016 67.6451 66.2554 67.25 67.25 67.25C68.2446 67.25 69.1984 67.6451 69.9016 68.3484C70.6049 69.0516 71 70.0054 71 71V99.125L63.5 96.425V71ZM53.3563 77.7313C54.0563 77.027 55.007 76.6292 56 76.625C56.9946 76.625 57.9484 77.0201 58.6516 77.7234C59.3549 78.4266 59.75 79.3804 59.75 80.375V95.0375L52.25 92.3375V80.375C52.2542 79.382 52.652 78.4313 53.3563 77.7313ZM55.4563 122.169C53.4057 120.121 52.2524 117.342 52.25 114.444V110.262L57.2375 112.137L58.5125 108.5L52.25 106.287V96.3125L89.1125 109.569L90.3875 106.044L86 104.469V73.1938C85.9692 72.2028 86.3098 71.2361 86.955 70.4833C87.6003 69.7306 88.5035 69.2461 89.4875 69.125C90.0224 69.0781 90.5609 69.1514 91.0638 69.3395C91.5667 69.5277 92.0211 69.826 92.3937 70.2125C92.7447 70.5614 93.0231 70.9762 93.213 71.4332C93.4028 71.8901 93.5004 72.3802 93.5 72.875V102.425C93.5018 102.795 93.6132 103.157 93.8201 103.463C94.027 103.77 94.3201 104.009 94.6625 104.15C95.004 104.294 95.3803 104.333 95.744 104.263C96.1078 104.193 96.4426 104.016 96.7062 103.756L103.719 96.7437C104.128 96.3387 104.615 96.019 105.149 95.8033C105.683 95.5877 106.255 95.4803 106.831 95.4875C107.316 95.4932 107.794 95.5957 108.239 95.7889C108.683 95.9821 109.084 96.2621 109.419 96.6125C110.037 97.303 110.378 98.1981 110.375 99.125C110.37 99.6415 110.262 100.152 110.056 100.625C109.849 101.099 109.55 101.526 109.175 101.881L102.069 110.225L94.1375 107.375L92.8625 110.9L99.4625 113.281L93.8375 119.956C93.575 120.275 93.3313 120.594 93.0875 120.931L62.3187 109.869L61.0437 113.394L91.1938 124.231C90.25 126.364 89.7584 128.668 89.75 131H59.75C59.3689 127.652 57.8537 124.536 55.4563 122.169ZM132.875 127.25V129.125H129.125V132.875H132.875V140.375H106.625V132.875H125.375V129.125H93.65C93.7497 128.492 93.8874 127.866 94.0625 127.25H132.875ZM97.25 132.875H102.875V140.375H97.25V132.875ZM56 134.75H93.5V136.625H89.75V140.375H93.5V147.875H67.25V140.375H86V136.625H56V134.75ZM63.5 140.375V147.875H59.75V140.375H63.5ZM52.25 140.375H56V147.875H52.25V140.375ZM56 153.5V151.625H93.5V153.5H56ZM97.25 146V144.125H132.875V146H97.25ZM95.8438 123.5C96.0847 123.116 96.3477 122.747 96.6313 122.394L108.256 108.725L130.513 116.731C129.588 118.868 129.116 121.172 129.125 123.5H95.8438ZM148.55 94.3812L141.444 102.725L133.513 99.875L132.237 103.4L138.838 105.781L133.213 112.456C132.95 112.775 132.706 113.094 132.462 113.431L110.862 105.688L111.931 104.431C113.327 103.017 114.114 101.112 114.125 99.125C114.121 98.32 113.981 97.5214 113.712 96.7625L128.487 102.069L129.763 98.5438L125.375 96.9688V65.6938C125.344 64.7028 125.685 63.7361 126.33 62.9833C126.975 62.2306 127.878 61.7461 128.863 61.625C129.397 61.5781 129.936 61.6514 130.439 61.8395C130.942 62.0277 131.396 62.326 131.769 62.7125C132.12 63.0614 132.398 63.4762 132.588 63.9332C132.778 64.3901 132.875 64.8802 132.875 65.375V94.925C132.877 95.2952 132.988 95.6565 133.195 95.9635C133.402 96.2705 133.695 96.5093 134.037 96.65C134.379 96.7936 134.755 96.8328 135.119 96.7627C135.483 96.6927 135.818 96.5164 136.081 96.2562L143.094 89.2437C143.503 88.8387 143.99 88.519 144.524 88.3033C145.058 88.0877 145.63 87.9803 146.206 87.9875C146.691 87.9932 147.169 88.0957 147.614 88.2889C148.058 88.4821 148.459 88.7621 148.794 89.1125C149.412 89.803 149.753 90.6981 149.75 91.625C149.745 92.1415 149.637 92.6517 149.431 93.1253C149.224 93.5989 148.925 94.026 148.55 94.3812Z" fill="#C89328"/>
<path d="M110.375 134.75H114.125V138.5H110.375V134.75Z" fill="#C89328"/>
<path d="M117.875 134.75H121.625V138.5H117.875V134.75Z" fill="#C89328"/>
<path d="M125.375 134.75H129.125V138.5H125.375V134.75Z" fill="#C89328"/>
</svg>
