<svg width="208" height="208" viewBox="0 0 208 208" fill="none" xmlns="http://www.w3.org/2000/svg">
<path d="M101.145 93.9221C102.116 93.9221 102.903 93.1351 102.903 92.1643V86.0841C102.903 85.1131 102.116 84.3261 101.145 84.3261H95.7577C95.0573 80.9291 93.1432 77.972 90.4931 75.923V67.4026C91.1163 66.8345 91.6589 66.1794 92.1019 65.457H97.5581C98.5289 65.457 99.3159 64.67 99.3159 63.6992V57.6191C99.3159 56.6483 98.5289 55.8612 97.5581 55.8612H91.9198C91.5129 55.2507 91.0336 54.6922 90.4931 54.1998V50.0785C90.4931 46.727 87.7664 44 84.4146 44H67.8888C64.5373 44 61.8103 46.7267 61.8103 50.0785V54.1998C61.2698 54.6924 60.7905 55.2507 60.3837 55.8615H54.7453C53.7745 55.8615 52.9875 56.6485 52.9875 57.6193V63.6992C52.9875 64.67 53.7745 65.457 54.7453 65.457H60.2016C60.6448 66.1794 61.1871 66.8347 61.8105 67.4026V75.9228C59.1605 77.9717 57.2463 80.9288 56.546 84.3261H51.1582C50.1874 84.3261 49.4004 85.1131 49.4004 86.0839V92.1641C49.4004 93.1348 50.1874 93.9219 51.1582 93.9219H56.2526V95.8384H51.1582C50.1874 95.8384 49.4004 96.6254 49.4004 97.5962V103.676C49.4004 104.647 50.1874 105.434 51.1582 105.434H57.6548C58.3737 107.623 59.2826 109.911 60.18 112.165C61.9702 116.661 63.821 121.31 63.821 124.39V126.461C63.821 130.276 60.1427 142.072 58.7252 146.296C58.7175 146.319 58.7102 146.343 58.7034 146.366C57.9802 148.862 58.4606 151.485 60.0213 153.562C61.5823 155.64 63.9677 156.831 66.5662 156.831H66.757C67.8891 160.958 71.6707 164 76.1517 164C80.6327 164 84.4146 160.958 85.5462 156.831H85.7372C88.3357 156.831 90.7212 155.64 92.2821 153.562C93.843 151.485 94.3233 148.862 93.6 146.366C93.5932 146.343 93.5859 146.319 93.5782 146.296C93.5412 146.186 89.8702 135.214 88.7759 129.027C88.6066 128.071 87.693 127.434 86.7389 127.603C85.7829 127.771 85.1449 128.684 85.3141 129.639C86.4319 135.958 89.9527 146.54 90.2327 147.377C90.6321 148.791 90.3553 150.274 89.4715 151.45C88.6125 152.594 87.3152 153.265 85.8937 153.311V152.949C85.8937 150.68 84.048 148.834 81.7793 148.834H70.5246C68.2559 148.834 66.4099 150.68 66.4099 152.949V153.311C64.9884 153.265 63.6914 152.594 62.8322 151.45C61.9484 150.274 61.6716 148.791 62.0709 147.377C62.6688 145.593 67.3366 131.504 67.3366 126.462V124.39C67.3366 120.636 65.4469 115.889 63.4462 110.865C61.638 106.323 59.7682 101.627 59.7682 98.4793V87.2105C59.7682 81.2832 64.5902 76.4612 70.5176 76.4612H81.7861C87.7134 76.4612 92.5355 81.2832 92.5355 87.2105V98.4793C92.5355 101.627 90.6663 106.323 88.8588 110.865C87.4873 114.311 86.0691 117.874 85.3936 120.945C85.1852 121.893 85.7848 122.831 86.7328 123.04C87.6813 123.248 88.6186 122.649 88.8272 121.7C89.441 118.909 90.8055 115.48 92.1251 112.165C93.022 109.911 93.9307 107.623 94.6491 105.434H101.145C102.116 105.434 102.903 104.647 102.903 103.677V97.5964C102.903 96.6256 102.116 95.8386 101.145 95.8386H96.0509V93.9221H101.145ZM96.0511 87.842H99.3874V90.4065H96.0511V87.842ZM95.8005 59.3766V61.9414H93.3396C93.3874 61.5676 93.4148 61.1877 93.4148 60.8009C93.4148 60.3162 93.3745 59.8407 93.3 59.3766H95.8005ZM58.9641 61.9414H56.5031V59.3769H59.0037C58.9289 59.8409 58.8888 60.3165 58.8888 60.8012C58.8888 61.1877 58.9163 61.5678 58.9641 61.9414ZM52.916 90.4065V87.842H56.2526V90.4065H52.916ZM52.916 101.919V99.3542H56.2882C56.3463 100.167 56.482 101.026 56.6759 101.919H52.916ZM69.9255 152.949C69.9255 152.619 70.1941 152.35 70.5246 152.35H81.7793C82.1095 152.35 82.3781 152.619 82.3781 152.949V154.258C82.3781 157.691 79.5851 160.484 76.152 160.484C72.7186 160.484 69.9255 157.691 69.9255 154.258V152.949ZM65.3262 50.0785C65.3262 48.6655 66.4758 47.5156 67.8891 47.5156H84.4148C85.8279 47.5156 86.9777 48.6652 86.9777 50.0785V52.2263C86.1855 51.9955 85.3491 51.8691 84.483 51.8691H67.8206C66.9548 51.8691 66.1184 51.9955 65.3262 52.2263V50.0785ZM84.483 66.2173H80.5826C79.6118 66.2173 78.8248 67.0044 78.8248 67.9752C78.8248 68.9459 79.6118 69.733 80.5826 69.733H84.483C85.3488 69.733 86.1853 69.6069 86.9777 69.3758V73.9278C85.3676 73.2962 83.6175 72.9455 81.7863 72.9455H70.5176C68.6862 72.9455 66.9363 73.2964 65.3262 73.928V69.376C66.1184 69.6069 66.9548 69.733 67.8206 69.733H72.573C73.5438 69.733 74.3309 68.9459 74.3309 67.9752C74.3309 67.0044 73.5438 66.2173 72.573 66.2173H67.8206C64.834 66.2173 62.4045 63.7876 62.4045 60.8009C62.4045 57.8143 64.8342 55.3848 67.8206 55.3848H84.483C87.4697 55.3848 89.8992 57.8145 89.8992 60.8012C89.8992 63.7878 87.4695 66.2173 84.483 66.2173ZM99.3874 99.3542V101.919H95.628C95.8216 101.026 95.9573 100.167 96.0155 99.3542H99.3874Z" fill="#C89328"/>
<path d="M76.1517 78.7313C68.3693 78.7313 62.0381 85.0627 62.0381 92.8449V98.4793C62.0381 101.192 63.8261 105.682 65.5563 110.028C67.6392 115.26 69.6065 120.201 69.6065 124.39V126.462C69.6065 127.952 69.228 131.105 67.425 137.662C66.8062 139.912 67.2616 142.265 68.6742 144.119C70.0828 145.967 72.224 147.027 74.5486 147.027H77.755C80.0796 147.027 82.2208 145.967 83.6294 144.119C85.042 142.265 85.4974 139.912 84.8786 137.662C83.0756 131.105 82.6971 127.952 82.6971 126.461V124.39C82.6968 120.201 84.6644 115.259 86.7485 110.024C88.4775 105.682 90.2653 101.191 90.2653 98.4793V92.8449C90.2653 85.0625 83.9339 78.7313 76.1517 78.7313ZM86.7496 98.4793C86.7496 100.517 84.9379 105.068 83.4813 108.726C81.27 114.281 79.1812 119.527 79.1812 124.39V126.462C79.1812 128.945 79.9577 133.026 81.4889 138.594C81.8142 139.777 81.5754 141.014 80.8333 141.987C80.0953 142.956 78.9733 143.511 77.755 143.511H74.5486C73.3303 143.511 72.2083 142.956 71.4703 141.987C70.7282 141.014 70.4892 139.777 70.8147 138.594C72.3459 133.027 73.1221 128.945 73.1221 126.462V124.39C73.1221 119.527 71.0336 114.281 68.8214 108.725C67.3654 105.068 65.5537 100.517 65.5537 98.4793V92.8449C65.5537 87.001 70.308 82.2469 76.1517 82.2469C81.9956 82.2469 86.7496 87.0012 86.7496 92.8449V98.4793Z" fill="#C89328"/>
<path d="M81.8218 88.6646C80.851 88.6646 80.064 89.4516 80.064 90.4224V97.5963C80.064 98.5671 80.8508 99.3542 81.8218 99.3542C82.7926 99.3542 83.5796 98.5671 83.5796 97.5963V90.4224C83.5796 89.4516 82.7926 88.6646 81.8218 88.6646Z" fill="#C89328"/>
<path d="M70.4819 88.6646C69.5112 88.6646 68.7241 89.4516 68.7241 90.4224V97.5963C68.7241 98.5671 69.5112 99.3542 70.4819 99.3542C71.4527 99.3542 72.2397 98.5671 72.2397 97.5963V90.4224C72.2397 89.4516 71.4527 88.6646 70.4819 88.6646Z" fill="#C89328"/>
<path d="M81.1853 59.968H71.1184C70.1476 59.968 69.3606 60.755 69.3606 61.7258C69.3606 62.6966 70.1476 63.4836 71.1184 63.4836H81.1853C82.1561 63.4836 82.9431 62.6968 82.9431 61.7258C82.9431 60.755 82.1561 59.968 81.1853 59.968Z" fill="#C89328"/>
<path d="M76.1519 98.7959C73.0218 98.7959 70.4756 101.342 70.4756 104.472C70.4756 107.602 73.0218 110.149 76.1519 110.149C79.282 110.149 81.8282 107.602 81.8282 104.472C81.8282 101.342 79.282 98.7959 76.1519 98.7959ZM76.1519 106.633C74.9606 106.633 73.9912 105.664 73.9912 104.472C73.9912 103.281 74.9606 102.312 76.1519 102.312C77.3432 102.312 78.3126 103.281 78.3126 104.472C78.3126 105.664 77.3432 106.633 76.1519 106.633Z" fill="#C89328"/>
<path d="M156.842 93.9223C157.813 93.9223 158.6 93.1351 158.6 92.1643V86.0841C158.6 85.1134 157.813 84.3263 156.842 84.3263H151.454C150.754 80.9293 148.84 77.9722 146.19 75.9233V67.4026C146.813 66.8345 147.355 66.1794 147.799 65.457H153.255C154.226 65.457 155.013 64.67 155.013 63.6992V57.6191C155.013 56.6483 154.226 55.8612 153.255 55.8612H147.616C147.209 55.2507 146.73 54.6924 146.19 54.1998V50.0785C146.19 46.727 143.463 44 140.111 44H135.583C134.612 44 133.826 44.787 133.826 45.7578C133.826 46.7286 134.612 47.5156 135.583 47.5156H140.111C141.524 47.5156 142.674 48.6652 142.674 50.0785V52.2266C141.882 51.9957 141.045 51.8694 140.179 51.8694H123.517C122.651 51.8694 121.815 51.9957 121.022 52.2266V50.0785C121.022 48.6655 122.172 47.5156 123.585 47.5156H127.573C128.544 47.5156 129.331 46.7286 129.331 45.7578C129.331 44.787 128.544 44 127.573 44H123.585C120.233 44 117.507 46.7267 117.507 50.0785V54.1998C116.966 54.6924 116.487 55.2507 116.08 55.8612H110.441C109.47 55.8612 108.684 56.6483 108.684 57.6191V63.6992C108.684 64.67 109.47 65.457 110.441 65.457H115.898C116.341 66.1794 116.883 66.8345 117.506 67.4026V75.923C114.856 77.972 112.942 80.9291 112.242 84.3261H106.855C105.884 84.3261 105.097 85.1131 105.097 86.0839V92.1641C105.097 93.1348 105.884 93.9219 106.855 93.9219H111.949V95.8384H106.855C105.884 95.8384 105.097 96.6254 105.097 97.5962V103.676C105.097 104.647 105.884 105.434 106.855 105.434H113.351C114.07 107.623 114.979 109.911 115.877 112.165C117.667 116.661 119.518 121.31 119.518 124.39V126.461C119.518 130.276 115.84 142.072 114.422 146.296C114.415 146.319 114.407 146.342 114.4 146.366C113.677 148.861 114.157 151.484 115.718 153.562C117.279 155.639 119.665 156.831 122.263 156.831H122.454C123.586 160.958 127.367 164 131.848 164C136.329 164 140.111 160.958 141.242 156.831H141.433C144.032 156.831 146.417 155.64 147.978 153.562C149.539 151.485 150.02 148.862 149.296 146.366C149.29 146.343 149.282 146.319 149.274 146.296C147.857 142.073 144.179 130.276 144.179 126.462V124.39C144.179 121.31 146.03 116.661 147.82 112.165C148.717 109.911 149.626 107.623 150.345 105.435H156.842C157.813 105.435 158.599 104.648 158.599 103.677V97.5966C158.599 96.6259 157.813 95.8388 156.842 95.8388H151.747V93.9223H156.842ZM151.748 87.842H155.084V90.4065H151.748V87.842ZM151.497 59.3769V61.9414H149.036C149.084 61.5676 149.111 61.1877 149.111 60.8012C149.111 60.3162 149.071 59.8409 148.996 59.3769H151.497ZM114.66 61.9414H112.199V59.3769H114.7C114.625 59.8409 114.585 60.3165 114.585 60.8012C114.585 61.1877 114.613 61.5678 114.66 61.9414ZM108.613 90.4065V87.842H111.949V90.4065H108.613ZM108.613 101.919V99.3542H111.985C112.043 100.167 112.178 101.026 112.372 101.919H108.613ZM123.517 55.385H140.179C143.166 55.385 145.596 57.8148 145.596 60.8012C145.596 63.7878 143.166 66.2173 140.179 66.2173H123.517C120.531 66.2173 118.101 63.7876 118.101 60.8012C118.101 57.8145 120.531 55.385 123.517 55.385ZM121.023 69.376C121.815 69.6069 122.651 69.733 123.517 69.733H140.18C141.045 69.733 141.882 69.6069 142.674 69.3758V73.9278C141.064 73.2962 139.314 72.9455 137.483 72.9455H126.214C124.383 72.9455 122.633 73.2962 121.023 73.9278V69.376ZM138.075 154.258H138.074C138.074 157.691 135.281 160.484 131.848 160.484C128.415 160.484 125.622 157.691 125.622 154.258V152.949C125.622 152.619 125.891 152.35 126.221 152.35H137.476C137.806 152.35 138.075 152.619 138.075 152.949V154.258ZM148.232 98.4795C148.232 101.627 146.361 106.323 144.553 110.865C142.553 115.89 140.663 120.636 140.663 124.39V126.462C140.663 131.504 145.332 145.597 145.929 147.377C146.328 148.791 146.052 150.274 145.168 151.45C144.309 152.594 143.012 153.265 141.59 153.311V152.949C141.59 150.68 139.744 148.834 137.476 148.834H126.221C123.952 148.834 122.106 150.68 122.106 152.949V153.311C120.685 153.265 119.387 152.594 118.528 151.45C117.644 150.274 117.368 148.791 117.767 147.377C118.364 145.597 123.033 131.504 123.033 126.462V124.39C123.033 120.636 121.143 115.89 119.142 110.865C117.334 106.323 115.464 101.627 115.464 98.4795V87.2108C115.464 81.2834 120.286 76.4614 126.214 76.4614H137.482C143.41 76.4614 148.232 81.2834 148.232 87.2108V98.4795ZM155.084 99.3542V101.919H151.324C151.518 101.026 151.654 100.167 151.712 99.3542H155.084Z" fill="#C89328"/>
<path d="M131.848 78.7313C124.066 78.7313 117.734 85.0627 117.734 92.8449V98.4793C117.734 101.192 119.522 105.683 121.253 110.028C123.336 115.26 125.303 120.201 125.303 124.39V126.462C125.303 127.952 124.924 131.105 123.121 137.662C122.502 139.911 122.958 142.265 124.37 144.118C125.779 145.967 127.92 147.027 130.245 147.027H133.451C135.776 147.027 137.917 145.967 139.325 144.119C140.738 142.265 141.193 139.912 140.574 137.662C138.772 131.105 138.393 127.952 138.393 126.461V124.39C138.393 120.201 140.36 115.259 142.444 110.025C144.173 105.683 145.961 101.192 145.961 98.4791V92.8447C145.962 85.0627 139.63 78.7313 131.848 78.7313ZM142.446 98.4793C142.446 100.518 140.634 105.069 139.177 108.728C136.966 114.282 134.878 119.528 134.878 124.39V126.462C134.878 128.944 135.654 133.026 137.185 138.594C137.51 139.777 137.271 141.014 136.529 141.988C135.792 142.956 134.669 143.511 133.451 143.511H130.245C129.027 143.511 127.905 142.956 127.167 141.988C126.425 141.014 126.186 139.777 126.511 138.594C128.042 133.027 128.818 128.945 128.818 126.462V124.39C128.818 119.527 126.73 114.282 124.518 108.725C123.062 105.069 121.25 100.518 121.25 98.4795V92.8452C121.25 87.0012 126.004 82.2472 131.848 82.2472C137.692 82.2472 142.446 87.0015 142.446 92.8452V98.4793Z" fill="#C89328"/>
<path d="M137.518 88.6644C136.547 88.6644 135.76 89.4515 135.76 90.4222V97.5962C135.76 98.567 136.547 99.354 137.518 99.354C138.489 99.354 139.276 98.567 139.276 97.5962V90.4222C139.276 89.4515 138.489 88.6644 137.518 88.6644Z" fill="#C89328"/>
<path d="M126.178 88.6646C125.208 88.6646 124.421 89.4516 124.421 90.4224V97.5963C124.421 98.5671 125.208 99.3542 126.178 99.3542C127.149 99.3542 127.936 98.5671 127.936 97.5963V90.4224C127.936 89.4516 127.149 88.6646 126.178 88.6646Z" fill="#C89328"/>
<path d="M136.882 59.968H126.815C125.844 59.968 125.057 60.755 125.057 61.7258C125.057 62.6968 125.844 63.4836 126.815 63.4836H136.882C137.853 63.4836 138.639 62.6966 138.639 61.7258C138.639 60.755 137.853 59.968 136.882 59.968Z" fill="#C89328"/>
<path d="M131.848 98.7959C128.718 98.7959 126.172 101.342 126.172 104.472C126.172 107.602 128.718 110.149 131.848 110.149C134.978 110.149 137.524 107.602 137.524 104.472C137.524 101.342 134.978 98.7959 131.848 98.7959ZM131.848 106.633C130.657 106.633 129.687 105.664 129.687 104.472C129.687 103.281 130.657 102.312 131.848 102.312C133.039 102.312 134.009 103.281 134.009 104.472C134.009 105.664 133.039 106.633 131.848 106.633Z" fill="#C89328"/>
</svg>
