<svg width="124" height="45" viewBox="0 0 124 45" fill="none" xmlns="http://www.w3.org/2000/svg">
<path d="M66.0301 37.7064C65.8751 38.7926 65.7201 39.5685 65.4101 40.034C65.1001 40.4995 64.6351 40.8099 64.0151 40.965H63.5501L64.1701 34.7581H64.6351C65.4101 34.603 65.7201 34.9133 65.8751 35.3788C66.1851 35.8443 66.1851 36.6202 66.0301 37.7064ZM65.2551 32.2754L60.1401 32.8961L59.0551 44.2237L64.4801 43.603C67.8901 43.2926 70.2151 40.8099 70.5251 37.5512C70.8351 33.9823 69.7501 31.8099 65.2551 32.2754Z" fill="#FAFAFA"/>
<path d="M78.275 30.8796L77.5 38.1727C77.345 39.1037 77.035 39.4141 76.57 39.5692C76.105 39.5692 75.795 39.2589 75.795 38.483L76.57 31.1899L72.23 31.6554L71.455 39.1037C71.145 41.7416 73.005 42.983 76.26 42.5175C79.515 42.2072 81.685 40.6554 81.84 37.8623L82.615 30.4141L78.275 30.8796Z" fill="#FAFAFA"/>
<path d="M89.7451 36.6208C89.5901 37.8622 89.1251 38.1725 88.66 38.3277C87.575 38.4829 87.575 37.2415 87.73 35.3794C87.885 33.5174 88.195 32.4312 89.28 32.276C89.745 32.276 90.21 32.4312 90.21 33.6725L94.24 33.207C94.55 29.9484 92.38 29.0174 89.59 29.3277C85.87 29.7932 83.545 32.276 83.39 35.845C83.08 39.4139 84.63 41.5863 88.505 41.1208C91.295 40.8105 93.775 39.2587 94.085 36.1553L89.7451 36.6208Z" fill="#FAFAFA"/>
<path d="M100.75 34.9135L98.89 35.0687L100.285 30.7239L100.75 34.9135ZM97.805 28.7066L93.155 40.3446L97.34 39.879L97.96 38.017L101.06 37.7066L101.37 39.4135L105.865 38.948L103.385 28.0859L97.805 28.7066Z" fill="#FAFAFA"/>
<path d="M115.32 26.6895L105.555 27.7757L105.245 30.8791L108.035 30.5688L107.105 38.7929L111.445 38.3274L112.375 29.9481L115.01 29.7929L115.32 26.6895Z" fill="#FAFAFA"/>
<path d="M116.095 26.5349L115.01 37.8624L119.35 37.3969L120.435 26.0693L116.095 26.5349Z" fill="#FAFAFA"/>
<path d="M5.89 17.5962L10.385 32.9583C10.385 33.2686 10.385 33.579 10.385 33.8893C10.23 35.1307 9.145 36.3721 7.75 36.5272L0 37.4583L0.465 33.1134L5.425 32.4928C5.735 32.4928 6.045 32.1824 6.045 31.8721C6.045 31.8721 6.045 31.8721 6.045 31.7169L1.55 16.8203C1.55 16.51 1.395 16.0445 1.395 15.7341C1.55 14.3376 2.79 13.0962 4.185 12.941L11.78 12.1652L11.16 16.51L6.51 16.9755C6.2 16.9755 6.045 17.2859 5.89 17.5962ZM18.6 16.1997L17.205 30.6307C17.205 30.941 17.36 31.0962 17.67 31.0962L21.855 30.6307L21.39 34.9755L14.725 35.7514C13.33 35.9066 12.4 34.9755 12.4 33.7341V33.579L14.26 14.3376C14.415 12.941 15.655 11.6997 16.895 11.5445L23.56 10.7686L23.25 14.9583L19.065 15.4238C18.755 15.579 18.6 15.8893 18.6 16.1997ZM33.17 21.6307L33.79 14.4928C33.79 14.1824 33.635 13.8721 33.325 13.8721L30.535 14.1824L29.76 22.7169L32.55 22.4065C32.86 22.4065 33.17 22.0962 33.17 21.6307ZM34.875 26.441L36.425 33.2686L31.93 33.7341L30.38 26.9065L29.45 27.0617L28.83 34.1997L24.335 34.6652L26.66 10.4583L29.76 10.1479L31 9.83758L36.27 9.21689C37.665 9.21689 38.75 10.1479 38.595 11.5445L37.51 23.6479C37.2 25.0445 36.115 26.1307 34.875 26.441ZM44.02 25.6652L46.345 25.3548L46.035 16.6652L44.02 25.6652ZM46.5 29.3893L43.09 29.6997L42.47 32.6479L37.51 33.1134L44.33 8.28586L45.725 8.13069L48.05 7.97551L49.445 7.82034L51.46 31.7169L46.655 32.1824L46.5 29.3893ZM59.83 6.57896L61.38 16.8203L65.255 5.95827H65.72L70.215 5.49276L67.89 29.8548L63.395 30.3203L64.48 19.3031L62.31 24.4238L60.295 28.9238L58.28 20.2341L57.195 30.941L52.7 31.4065L55.025 7.04448H55.335L59.52 6.57896H59.83ZM81.84 16.1997C82.925 16.0445 83.545 16.8203 83.545 17.7514L82.77 25.6652C82.615 27.0617 81.375 28.3031 80.135 28.4583L74.865 29.079L70.37 29.5445L72.54 5.33758L75.64 5.02724L77.035 4.87207L82.305 4.25138C83.7 4.0962 84.63 5.02724 84.475 6.42379L83.7 14.0272C83.7 15.1134 82.77 16.0445 81.84 16.1997ZM76.105 15.4238L79.36 15.1134L79.825 9.52724C79.825 9.21689 79.67 8.90655 79.36 8.90655L76.57 9.21689L76.105 15.4238ZM79.05 18.8376L75.795 19.1479L75.33 24.7341L78.12 24.4238C78.43 24.4238 78.74 24.1134 78.74 23.8031L79.05 18.8376ZM94.55 26.9065L89.59 27.5272L85.095 27.9928L87.42 3.63069L91.915 3.16517L89.9 23.0272L94.86 22.4065L94.55 26.9065ZM105.865 15.8893L101.525 16.3548L101.06 21.941L106.33 21.3203L106.02 25.51L100.595 26.1307L96.1 26.5962L98.425 2.38931L101.525 2.07896L102.92 1.92379L108.5 1.3031L108.035 5.64793L102.455 6.26862L101.835 12.4755L106.175 12.01L105.865 15.8893ZM117.335 12.3203L117.955 5.18241C117.955 4.87207 117.8 4.56172 117.49 4.56172L114.7 4.87207L113.925 13.4065L116.715 13.0962C117.025 13.0962 117.18 12.7859 117.335 12.3203C117.18 12.4755 117.18 12.3203 117.335 12.3203ZM122.605 2.38931L121.52 14.4928C121.365 15.7341 120.28 16.8203 119.04 17.1307L120.59 23.9583L116.095 24.4238L114.545 17.5962L113.46 17.7514L112.84 24.8893L108.345 25.3548L110.67 1.14793L113.77 0.837583L115.165 0.682411L120.435 0.0617212C121.83 -0.0934513 122.76 0.837583 122.605 2.38931Z" fill="#FAFAFA"/>
</svg>
