<svg width="150" height="52" viewBox="0 0 150 52" fill="none" xmlns="http://www.w3.org/2000/svg">
<path fill-rule="evenodd" clip-rule="evenodd" d="M146.209 12.4485V11.4069H146.696C147.234 11.4069 147.43 11.5947 147.43 11.9277C147.43 12.2607 147.191 12.4485 146.764 12.4485H146.209ZM147.251 12.7815C147.477 12.7815 147.694 12.6916 147.855 12.5314C148.015 12.3713 148.105 12.1542 148.105 11.9277C148.105 11.1764 147.405 11.0142 146.747 11.0142H145.62V14.011H146.243V12.8754H146.662L147.516 14.011H148.369L147.362 12.7986L147.251 12.7815Z" fill="#231F20"/>
<path fill-rule="evenodd" clip-rule="evenodd" d="M20.0184 39.9318C20.0184 40.1965 20.0184 40.4697 20.0184 40.743C20.0184 41.0162 20.3086 40.8198 20.4196 40.743L21.726 39.8892H27.805L24.9704 41.8016L34.6268 39.9318H61.1968L51.1733 41.9212L2.50709 51.3556C2.30218 51.2702 2.50709 51.0568 2.50709 50.9458C3.95321 49.4517 5.0038 47.6206 5.56368 45.6181C7.7067 45.1058 9.96924 44.7045 12.172 44.252C12.8542 44.1466 13.5256 43.9809 14.1784 43.7568C12.8977 42.5188 11.6683 41.1955 10.5157 39.9318H20.0184Z" fill="#231F20"/>
<path fill-rule="evenodd" clip-rule="evenodd" d="M47.3913 30.0451L47.34 30.2671L42.7552 34.075C42.5178 33.9624 42.3317 33.7641 42.2343 33.52C41.9759 32.6734 42.0398 31.7611 42.4136 30.9587C42.8452 30.3118 43.4681 29.816 44.1952 29.5405C44.9223 29.265 45.7173 29.2235 46.4692 29.4218C46.8875 29.4218 47.1095 29.7804 47.3913 30.0451ZM54.2216 28.5083L54.0765 28.7303L46.7082 35.1337C46.7082 35.4155 47.0668 35.3472 47.2461 35.4326C48.7253 35.7667 50.2764 35.5158 51.5748 34.7324L58.7894 28.5083H63.9634L55.3657 35.9277L55.2291 36.2522C57.9356 35.7655 60.6507 35.3386 63.2974 34.6897C63.1437 34.3311 62.7766 33.964 62.6314 33.5713C62.2985 31.7783 64.4756 32.4101 65.1928 31.2148C65.4618 30.8789 65.6477 30.4842 65.7352 30.0628C65.8227 29.6414 65.8095 29.2053 65.6966 28.79L65.5344 28.5083H79.2548L77.5472 29.6182C76.9471 29.9641 76.376 30.3582 75.8396 30.7964C75.5125 31.3716 75.2437 31.9779 75.0371 32.6065C77.94 32.1369 80.8001 31.5478 83.6433 30.8989C83.8951 30.1069 84.0835 29.296 84.2068 28.4741H90.6956C90.6358 28.8071 90.5932 29.1572 90.5163 29.4816L90.6871 29.678L93.4704 29.2084L93.6668 29.0376C93.1843 28.8996 92.7178 28.7107 92.2752 28.4741H117.18L89.7394 33.8274L89.5345 34.1177L88.877 37.678L88.6039 37.8061C86.4864 38.2074 84.3349 38.6599 82.2345 39.0014C82.2345 37.8659 82.7297 36.9352 82.5931 35.9021C79.178 36.2693 76.0104 36.995 72.766 37.6097L61.1971 39.932H34.6271L39.8096 38.9331L40.3816 38.7452C39.4152 38.1242 38.5191 37.3999 37.7092 36.5852C36.975 35.9875 36.7701 34.7922 35.7541 34.6983L27.7882 39.932H21.7092L35.7199 30.8648C35.9054 30.0526 36.1773 29.2626 36.531 28.5083H54.2216ZM10.3708 28.5083C11.3382 32.5445 13.1544 36.3282 15.6985 39.6076C15.7231 35.8 16.4766 32.0324 17.9183 28.5083H24.9707C23.4207 30.0079 22.1996 31.8135 21.3847 33.8103C20.5809 35.7572 20.1188 37.8281 20.0187 39.932H10.5074C7.4163 36.5229 4.84961 32.6728 2.8916 28.5083H10.3708Z" fill="#231F20"/>
<path fill-rule="evenodd" clip-rule="evenodd" d="M124.344 17.3747C124.548 17.8358 124.624 18.3439 124.562 18.8447C124.501 19.3455 124.304 19.8201 123.994 20.2178C123.657 20.5506 123.236 20.7859 122.776 20.8987C122.316 21.0114 121.834 20.9974 121.381 20.8581C120.884 20.709 120.431 20.4415 120.061 20.0786C119.691 19.7157 119.414 19.2683 119.255 18.7749C119.089 18.3366 119.047 17.8612 119.133 17.4005C119.219 16.9399 119.429 16.5116 119.742 16.1623C120.145 15.8033 120.646 15.572 121.181 15.4975C121.716 15.4231 122.261 15.5088 122.747 15.7439C123.45 16.0884 124.014 16.6641 124.344 17.3747ZM132.335 21.7717C131.391 22.1626 130.396 22.4184 129.381 22.5316C129.304 22.1901 129.74 22.0193 129.808 21.6778L130.295 20.5935C131.054 20.8155 131.49 21.6863 132.335 21.7461V21.7717ZM112.484 20.38C112.583 21.3296 112.91 22.2412 113.438 23.0367C113.966 23.8322 114.679 24.488 115.515 24.9478L103.776 27.3299C104.126 26.5785 104.783 26.0236 104.962 25.2125L112.22 20.4398C112.305 20.4398 112.373 20.3459 112.484 20.38ZM97.9699 21.7119C98.1688 22.1759 98.2509 22.6815 98.2093 23.1846C98.1676 23.6876 98.0033 24.1728 97.7308 24.5978C97.4349 24.9837 97.042 25.2843 96.592 25.4688C96.142 25.6532 95.6511 25.7151 95.1695 25.6479C94.5465 25.5459 93.9589 25.2903 93.4595 24.9043C92.9601 24.5182 92.5648 24.0138 92.3093 23.4366C92.0461 22.8559 91.9608 22.2104 92.0641 21.5813C92.1675 20.9522 92.4548 20.3679 92.8899 19.9019C93.4227 19.5613 94.0419 19.3802 94.6743 19.3802C95.3067 19.3802 95.9259 19.5613 96.4587 19.9019C97.134 20.3422 97.6607 20.976 97.9699 21.7205V21.7119ZM58.7638 28.5423L66.9175 21.507L69.8119 18.9969C70.4864 18.9969 70.9816 19.5604 71.5194 19.8934C73.7351 21.6282 75.2091 24.1398 75.6432 26.9201C75.6701 26.956 75.7039 26.9862 75.7424 27.009C75.781 27.0319 75.8237 27.0469 75.8681 27.0533C75.9125 27.0596 75.9578 27.0571 76.0012 27.046C76.0447 27.0349 76.0855 27.0153 76.1214 26.9884C79.2548 24.9307 82.3199 22.6682 85.4277 20.5679C85.6326 19.9702 85.6582 19.3043 85.8632 18.7066C89.8845 14.9158 95.0756 12.8667 100.531 14.301C101.896 14.7919 103.127 15.5949 104.126 16.6459C105.125 17.6969 105.865 18.9668 106.286 20.3544C106.405 20.5252 106.602 20.3971 106.73 20.3544L112.45 16.8026C113.304 16.1111 113.569 15.0267 114.303 14.2413C115.566 12.4434 117.337 11.0637 119.389 10.2788C121.441 9.49385 123.68 9.33956 125.821 9.83568C127.273 10.1878 128.661 10.7639 129.936 11.5433C130.406 11.0225 130.081 9.92961 130.986 9.793C133.351 9.793 135.75 9.88691 138.064 9.73323L138.124 9.92107L136.817 15.6842C136.789 16.2066 136.902 16.727 137.146 17.19C137.389 17.6531 137.754 18.0414 138.201 18.3138C138.497 18.5043 138.83 18.6314 139.179 18.6872C139.527 18.7431 139.883 18.7264 140.224 18.6383C140.817 18.394 141.358 18.0407 141.821 17.5967C143.11 18.2968 144.382 19.0822 145.612 19.8336C146.48 19.8177 147.343 19.6797 148.173 19.4238L148.352 19.475C148.765 20.3887 149.321 21.2303 150 21.9681L149.727 22.2071L137.321 24.5038L119.733 28.0044L117.172 28.5081H92.1727C91.7678 28.2925 91.3944 28.0224 91.0627 27.7056H90.8749C90.7333 27.9721 90.638 28.2608 90.5931 28.5593H84.1043C84.2751 27.4836 84.3776 26.3737 84.5312 25.3235H84.3434L79.2206 28.5679H65.5173L65.1501 27.919C65.0182 27.8684 64.8723 27.8684 64.7403 27.919L63.9548 28.5935L58.7638 28.5423ZM36.514 28.5423C37.0949 27.2088 37.9455 26.0099 39.0123 25.021C40.079 24.0321 41.3389 23.2747 42.7125 22.7962C46.2814 21.729 50.6015 22.5913 52.958 25.7418C53.552 26.5298 54.0426 27.3906 54.418 28.3032L54.2302 28.585L36.514 28.5423ZM17.8927 28.5423C19.4102 24.9378 21.7805 21.7558 24.7999 19.2701C26.6612 17.9723 28.5481 16.7087 30.7338 16.333C32.0452 18.8881 33.6097 21.3051 35.404 23.5476C35.4331 23.602 35.4493 23.6625 35.4512 23.7242C35.4532 23.7859 35.441 23.8472 35.4153 23.9034C35.3897 23.9596 35.3515 24.0091 35.3036 24.048C35.2557 24.087 35.1995 24.1144 35.1393 24.1282C31.4168 24.0342 27.7028 25.8358 24.945 28.5423H17.8927ZM2.87451 28.5423C1.24156 25.0226 0.277439 21.2298 0.0313612 17.3576C-0.310156 11.1334 2.15734 6.02776 6.46899 1.98933C7.35248 1.16282 8.36833 0.49039 9.47431 0C9.81582 0.589117 9.97809 1.31482 10.2684 1.95517C11.5671 4.6925 13.3323 7.18291 15.485 9.31488C14.9045 10.3053 13.9397 11.1078 13.2822 12.0641C11.6883 14.0624 10.5557 16.3882 9.9653 18.8752C9.37491 21.3622 9.34136 23.949 9.86707 26.4505C9.99514 27.1591 10.1488 27.8507 10.3196 28.5423H2.87451Z" fill="#231F20"/>
<path d="M144.126 12.4912C144.126 11.7961 144.402 11.1294 144.894 10.6378C145.385 10.1463 146.052 9.87012 146.747 9.87012C147.091 9.87012 147.432 9.9379 147.75 10.0696C148.068 10.2014 148.357 10.3944 148.601 10.6378C148.844 10.8812 149.037 11.1702 149.169 11.4882C149.3 11.8062 149.368 12.147 149.368 12.4912C149.368 13.1863 149.091 13.8527 148.6 14.344C148.359 14.5901 148.07 14.785 147.752 14.9171C147.433 15.0491 147.092 15.1155 146.747 15.1124C146.052 15.1124 145.385 14.8362 144.894 14.3447C144.402 13.8531 144.126 13.1864 144.126 12.4912ZM144.433 12.4912C144.432 12.7942 144.491 13.0943 144.607 13.3743C144.723 13.6542 144.893 13.9084 145.108 14.122C145.323 14.3382 145.578 14.5098 145.859 14.6271C146.141 14.7443 146.442 14.8048 146.747 14.805C147.051 14.8046 147.351 14.7439 147.631 14.6267C147.911 14.5095 148.165 14.3379 148.378 14.122C148.594 13.9088 148.765 13.6549 148.883 13.375C149 13.0951 149.06 12.7947 149.061 12.4912C149.056 11.879 148.811 11.2931 148.378 10.8601C147.945 10.4272 147.359 10.1819 146.747 10.1775C146.442 10.1778 146.141 10.2382 145.859 10.3555C145.578 10.4727 145.323 10.6443 145.108 10.8605C144.893 11.0742 144.723 11.3283 144.607 11.6082C144.491 11.8882 144.432 12.1883 144.433 12.4912Z" fill="#231F20"/>
</svg>
